<?xml version="1.0" encoding="UTF-8" standalone="no"?>
<!DOCTYPE svg PUBLIC "-//W3C//DTD SVG 1.1//EN" "http://www.w3.org/Graphics/SVG/1.1/DTD/svg11.dtd">
<!-- Generated by graphviz version 2.40.1 (20161225.0304)
 -->
<!-- Title: snakemake_dag Pages: 1 -->
<svg width="1598pt" height="1124pt" viewBox="0.00 0.00 1598.00 1124.00" xmlns="http://www.w3.org/2000/svg" xmlns:xlink="http://www.w3.org/1999/xlink">
<g id="graph0" class="graph" transform="scale(1 1) rotate(0) translate(4 1120)">
<title>snakemake_dag</title>
<polygon fill="#ffffff" stroke="transparent" points="-4,4 -4,-1120 1594,-1120 1594,4 -4,4"/>
<!-- 0 -->
<g id="node1" class="node">
<title>0</title>
<path fill="none" stroke="#97d856" stroke-width="2" d="M692,-36C692,-36 662,-36 662,-36 656,-36 650,-30 650,-24 650,-24 650,-12 650,-12 650,-6 656,0 662,0 662,0 692,0 692,0 698,0 704,-6 704,-12 704,-12 704,-24 704,-24 704,-30 698,-36 692,-36"/>
<text text-anchor="middle" x="677" y="-15" font-family="sans" font-size="10.00" fill="#000000">all</text>
</g>
<!-- 1 -->
<g id="node2" class="node">
<title>1</title>
<path fill="none" stroke="#56d8d0" stroke-width="2" d="M814.3541,-1044C814.3541,-1044 733.6459,-1044 733.6459,-1044 727.6459,-1044 721.6459,-1038 721.6459,-1032 721.6459,-1032 721.6459,-1020 721.6459,-1020 721.6459,-1014 727.6459,-1008 733.6459,-1008 733.6459,-1008 814.3541,-1008 814.3541,-1008 820.3541,-1008 826.3541,-1014 826.3541,-1020 826.3541,-1020 826.3541,-1032 826.3541,-1032 826.3541,-1038 820.3541,-1044 814.3541,-1044"/>
<text text-anchor="middle" x="774" y="-1023" font-family="sans" font-size="10.00" fill="#000000">process_series_matrix</text>
</g>
<!-- 1&#45;&gt;0 -->
<g id="edge16" class="edge">
<title>1-&gt;0</title>
<path fill="none" stroke="#c0c0c0" stroke-width="2" d="M721.359,-1023.4418C597.6007,-1017.0532 291.146,-998.952 192,-972 101.0572,-947.2779 0,-976.2432 0,-882 0,-882 0,-882 0,-162 0,-116.4558 10.8791,-96.9213 49,-72 98.5003,-39.6395 512.1999,-23.4261 639.7242,-19.1646"/>
<polygon fill="#c0c0c0" stroke="#c0c0c0" stroke-width="2" points="639.9069,-22.6606 649.7863,-18.8334 639.6766,-15.6644 639.9069,-22.6606"/>
</g>
<!-- 3 -->
<g id="node4" class="node">
<title>3</title>
<path fill="none" stroke="#56d88a" stroke-width="2" d="M169.5931,-396C169.5931,-396 136.4069,-396 136.4069,-396 130.4069,-396 124.4069,-390 124.4069,-384 124.4069,-384 124.4069,-372 124.4069,-372 124.4069,-366 130.4069,-360 136.4069,-360 136.4069,-360 169.5931,-360 169.5931,-360 175.5931,-360 181.5931,-366 181.5931,-372 181.5931,-372 181.5931,-384 181.5931,-384 181.5931,-390 175.5931,-396 169.5931,-396"/>
<text text-anchor="middle" x="153" y="-375" font-family="sans" font-size="10.00" fill="#000000">label_data</text>
</g>
<!-- 1&#45;&gt;3 -->
<g id="edge24" class="edge">
<title>1-&gt;3</title>
<path fill="none" stroke="#c0c0c0" stroke-width="2" d="M721.5891,-1024.9941C571.8743,-1020.7145 153,-998.3451 153,-882 153,-882 153,-882 153,-522 153,-481.876 153,-435.4631 153,-406.4177"/>
<polygon fill="#c0c0c0" stroke="#c0c0c0" stroke-width="2" points="156.5001,-406.1853 153,-396.1854 149.5001,-406.1854 156.5001,-406.1853"/>
</g>
<!-- 4 -->
<g id="node5" class="node">
<title>4</title>
<path fill="none" stroke="#56d8d8" stroke-width="2" d="M1093.4414,-972C1093.4414,-972 1046.5586,-972 1046.5586,-972 1040.5586,-972 1034.5586,-966 1034.5586,-960 1034.5586,-960 1034.5586,-948 1034.5586,-948 1034.5586,-942 1040.5586,-936 1046.5586,-936 1046.5586,-936 1093.4414,-936 1093.4414,-936 1099.4414,-936 1105.4414,-942 1105.4414,-948 1105.4414,-948 1105.4414,-960 1105.4414,-960 1105.4414,-966 1099.4414,-972 1093.4414,-972"/>
<text text-anchor="middle" x="1070" y="-951" font-family="sans" font-size="10.00" fill="#000000">split_samples</text>
</g>
<!-- 1&#45;&gt;4 -->
<g id="edge27" class="edge">
<title>1-&gt;4</title>
<path fill="none" stroke="#c0c0c0" stroke-width="2" d="M826.5778,-1013.2108C882.9196,-999.5061 971.4245,-977.9778 1024.7632,-965.0035"/>
<polygon fill="#c0c0c0" stroke="#c0c0c0" stroke-width="2" points="1025.7305,-968.3704 1034.6199,-962.606 1024.0759,-961.5687 1025.7305,-968.3704"/>
</g>
<!-- 37 -->
<g id="node38" class="node">
<title>37</title>
<path fill="none" stroke="#56c9d8" stroke-width="2" d="M1386,-468C1386,-468 1356,-468 1356,-468 1350,-468 1344,-462 1344,-456 1344,-456 1344,-444 1344,-444 1344,-438 1350,-432 1356,-432 1356,-432 1386,-432 1386,-432 1392,-432 1398,-438 1398,-444 1398,-444 1398,-456 1398,-456 1398,-462 1392,-468 1386,-468"/>
<text text-anchor="middle" x="1371" y="-447" font-family="sans" font-size="10.00" fill="#000000">prep_jtk</text>
</g>
<!-- 1&#45;&gt;37 -->
<g id="edge103" class="edge">
<title>1-&gt;37</title>
<path fill="none" stroke="#c0c0c0" stroke-width="2" d="M826.4473,-1020.6927C988.1242,-1003.6343 1468,-947.487 1468,-882 1468,-882 1468,-882 1468,-594 1468,-545.7831 1430.1279,-501.6001 1401.7122,-475.2353"/>
<polygon fill="#c0c0c0" stroke="#c0c0c0" stroke-width="2" points="1403.762,-472.3713 1393.9876,-468.2831 1399.0791,-477.5744 1403.762,-472.3713"/>
</g>
<!-- 38 -->
<g id="node39" class="node">
<title>38</title>
<path fill="none" stroke="#d86e56" stroke-width="2" d="M1441,-396C1441,-396 1411,-396 1411,-396 1405,-396 1399,-390 1399,-384 1399,-384 1399,-372 1399,-372 1399,-366 1405,-360 1411,-360 1411,-360 1441,-360 1441,-360 1447,-360 1453,-366 1453,-372 1453,-372 1453,-384 1453,-384 1453,-390 1447,-396 1441,-396"/>
<text text-anchor="middle" x="1426" y="-375" font-family="sans" font-size="10.00" fill="#000000">run_jtk</text>
</g>
<!-- 1&#45;&gt;38 -->
<g id="edge108" class="edge">
<title>1-&gt;38</title>
<path fill="none" stroke="#c0c0c0" stroke-width="2" d="M826.3989,-1024.6286C920.5263,-1021.2616 1123.9969,-1009.8578 1291,-972 1407.394,-945.6148 1544,-1001.3472 1544,-882 1544,-882 1544,-882 1544,-594 1544,-516.7472 1523.5128,-496.5032 1481,-432 1474.0963,-421.5252 1464.8729,-411.4804 1455.9547,-402.9555"/>
<polygon fill="#c0c0c0" stroke="#c0c0c0" stroke-width="2" points="1458.3199,-400.3755 1448.5929,-396.1759 1453.5779,-405.5247 1458.3199,-400.3755"/>
</g>
<!-- 39 -->
<g id="node40" class="node">
<title>39</title>
<path fill="none" stroke="#d88d56" stroke-width="2" d="M911.5454,-468C911.5454,-468 864.4546,-468 864.4546,-468 858.4546,-468 852.4546,-462 852.4546,-456 852.4546,-456 852.4546,-444 852.4546,-444 852.4546,-438 858.4546,-432 864.4546,-432 864.4546,-432 911.5454,-432 911.5454,-432 917.5454,-432 923.5454,-438 923.5454,-444 923.5454,-444 923.5454,-456 923.5454,-456 923.5454,-462 917.5454,-468 911.5454,-468"/>
<text text-anchor="middle" x="888" y="-447" font-family="sans" font-size="10.00" fill="#000000">prep_bootejtk</text>
</g>
<!-- 1&#45;&gt;39 -->
<g id="edge111" class="edge">
<title>1-&gt;39</title>
<path fill="none" stroke="#c0c0c0" stroke-width="2" d="M756.7544,-1007.6186C734.3312,-981.719 698,-932.0348 698,-882 698,-882 698,-882 698,-594 698,-521.7666 786.3022,-481.096 842.511,-462.5243"/>
<polygon fill="#c0c0c0" stroke="#c0c0c0" stroke-width="2" points="843.7977,-465.7877 852.2625,-459.416 841.6718,-459.1183 843.7977,-465.7877"/>
</g>
<!-- 40 -->
<g id="node41" class="node">
<title>40</title>
<path fill="none" stroke="#d89c56" stroke-width="2" d="M1086.031,-468C1086.031,-468 1003.969,-468 1003.969,-468 997.969,-468 991.969,-462 991.969,-456 991.969,-456 991.969,-444 991.969,-444 991.969,-438 997.969,-432 1003.969,-432 1003.969,-432 1086.031,-432 1086.031,-432 1092.031,-432 1098.031,-438 1098.031,-444 1098.031,-444 1098.031,-456 1098.031,-456 1098.031,-462 1092.031,-468 1086.031,-468"/>
<text text-anchor="middle" x="1045" y="-447" font-family="sans" font-size="10.00" fill="#000000">run_compare_rhythms</text>
</g>
<!-- 1&#45;&gt;40 -->
<g id="edge115" class="edge">
<title>1-&gt;40</title>
<path fill="none" stroke="#c0c0c0" stroke-width="2" d="M784.1167,-1007.9077C812.0168,-956.2582 888,-803.018 888,-666 888,-666 888,-666 888,-594 888,-536.5609 945.7786,-495.8176 991.2338,-472.6518"/>
<polygon fill="#c0c0c0" stroke="#c0c0c0" stroke-width="2" points="993.0108,-475.6779 1000.4301,-468.1144 989.9135,-469.4004 993.0108,-475.6779"/>
</g>
<!-- 2 -->
<g id="node3" class="node">
<title>2</title>
<path fill="none" stroke="#9fd856" stroke-width="2" d="M805.587,-1116C805.587,-1116 742.413,-1116 742.413,-1116 736.413,-1116 730.413,-1110 730.413,-1104 730.413,-1104 730.413,-1092 730.413,-1092 730.413,-1086 736.413,-1080 742.413,-1080 742.413,-1080 805.587,-1080 805.587,-1080 811.587,-1080 817.587,-1086 817.587,-1092 817.587,-1092 817.587,-1104 817.587,-1104 817.587,-1110 811.587,-1116 805.587,-1116"/>
<text text-anchor="middle" x="774" y="-1095" font-family="sans" font-size="10.00" fill="#000000">get_series_matrix</text>
</g>
<!-- 2&#45;&gt;1 -->
<g id="edge23" class="edge">
<title>2-&gt;1</title>
<path fill="none" stroke="#c0c0c0" stroke-width="2" d="M774,-1079.8314C774,-1072.131 774,-1062.9743 774,-1054.4166"/>
<polygon fill="#c0c0c0" stroke="#c0c0c0" stroke-width="2" points="777.5001,-1054.4132 774,-1044.4133 770.5001,-1054.4133 777.5001,-1054.4132"/>
</g>
<!-- 3&#45;&gt;0 -->
<g id="edge13" class="edge">
<title>3-&gt;0</title>
<path fill="none" stroke="#c0c0c0" stroke-width="2" d="M124.573,-359.8591C90.5182,-335.6527 38,-289.3495 38,-234 38,-234 38,-234 38,-162 38,-114.6526 54.6197,-96.7226 95,-72 141.3621,-43.6152 517.8821,-24.9144 639.3649,-19.5733"/>
<polygon fill="#c0c0c0" stroke="#c0c0c0" stroke-width="2" points="639.8128,-23.0572 649.6514,-19.1263 639.5088,-16.0638 639.8128,-23.0572"/>
</g>
<!-- 6 -->
<g id="node7" class="node">
<title>6</title>
<path fill="none" stroke="#56a9d8" stroke-width="2" d="M168,-324C168,-324 138,-324 138,-324 132,-324 126,-318 126,-312 126,-312 126,-300 126,-300 126,-294 132,-288 138,-288 138,-288 168,-288 168,-288 174,-288 180,-294 180,-300 180,-300 180,-312 180,-312 180,-318 174,-324 168,-324"/>
<text text-anchor="middle" x="153" y="-303" font-family="sans" font-size="10.00" fill="#000000">plot_qc</text>
</g>
<!-- 3&#45;&gt;6 -->
<g id="edge28" class="edge">
<title>3-&gt;6</title>
<path fill="none" stroke="#c0c0c0" stroke-width="2" d="M153,-359.8314C153,-352.131 153,-342.9743 153,-334.4166"/>
<polygon fill="#c0c0c0" stroke="#c0c0c0" stroke-width="2" points="156.5001,-334.4132 153,-324.4133 149.5001,-334.4133 156.5001,-334.4132"/>
</g>
<!-- 8 -->
<g id="node9" class="node">
<title>8</title>
<path fill="none" stroke="#56d873" stroke-width="2" d="M113.8259,-252C113.8259,-252 78.1741,-252 78.1741,-252 72.1741,-252 66.1741,-246 66.1741,-240 66.1741,-240 66.1741,-228 66.1741,-228 66.1741,-222 72.1741,-216 78.1741,-216 78.1741,-216 113.8259,-216 113.8259,-216 119.8259,-216 125.8259,-222 125.8259,-228 125.8259,-228 125.8259,-240 125.8259,-240 125.8259,-246 119.8259,-252 113.8259,-252"/>
<text text-anchor="middle" x="96" y="-231" font-family="sans" font-size="10.00" fill="#000000">plot_genes</text>
</g>
<!-- 3&#45;&gt;8 -->
<g id="edge32" class="edge">
<title>3-&gt;8</title>
<path fill="none" stroke="#c0c0c0" stroke-width="2" d="M138.5844,-359.9611C131.1712,-349.8913 122.5515,-336.8213 117,-324 108.4199,-304.1839 103.0572,-280.3285 99.9004,-262.158"/>
<polygon fill="#c0c0c0" stroke="#c0c0c0" stroke-width="2" points="103.3401,-261.5031 98.289,-252.1898 96.4298,-262.6202 103.3401,-261.5031"/>
</g>
<!-- 29 -->
<g id="node30" class="node">
<title>29</title>
<path fill="none" stroke="#d88556" stroke-width="2" d="M1256.6741,-612C1256.6741,-612 1147.3259,-612 1147.3259,-612 1141.3259,-612 1135.3259,-606 1135.3259,-600 1135.3259,-600 1135.3259,-588 1135.3259,-588 1135.3259,-582 1141.3259,-576 1147.3259,-576 1147.3259,-576 1256.6741,-576 1256.6741,-576 1262.6741,-576 1268.6741,-582 1268.6741,-588 1268.6741,-588 1268.6741,-600 1268.6741,-600 1268.6741,-606 1262.6741,-612 1256.6741,-612"/>
<text text-anchor="middle" x="1202" y="-591" font-family="sans" font-size="10.00" fill="#000000">aggregate_expression_values</text>
</g>
<!-- 4&#45;&gt;29 -->
<g id="edge88" class="edge">
<title>4-&gt;29</title>
<path fill="none" stroke="#c0c0c0" stroke-width="2" d="M1105.3119,-951.2497C1178.0855,-943.4568 1338,-914.4493 1338,-810 1338,-810 1338,-810 1338,-738 1338,-683.652 1286.1641,-641.5246 1246.4962,-617.2431"/>
<polygon fill="#c0c0c0" stroke="#c0c0c0" stroke-width="2" points="1248.1184,-614.1359 1237.7324,-612.0425 1244.5461,-620.1558 1248.1184,-614.1359"/>
</g>
<!-- 30 -->
<g id="node31" class="node">
<title>30</title>
<path fill="none" stroke="#56d8a9" stroke-width="2" d="M1221.7154,-684C1221.7154,-684 1182.2846,-684 1182.2846,-684 1176.2846,-684 1170.2846,-678 1170.2846,-672 1170.2846,-672 1170.2846,-660 1170.2846,-660 1170.2846,-654 1176.2846,-648 1182.2846,-648 1182.2846,-648 1221.7154,-648 1221.7154,-648 1227.7154,-648 1233.7154,-654 1233.7154,-660 1233.7154,-660 1233.7154,-672 1233.7154,-672 1233.7154,-678 1227.7154,-684 1221.7154,-684"/>
<text text-anchor="middle" x="1202" y="-663" font-family="sans" font-size="10.00" fill="#000000">run_salmon</text>
</g>
<!-- 4&#45;&gt;30 -->
<g id="edge92" class="edge">
<title>4-&gt;30</title>
<path fill="none" stroke="#c0c0c0" stroke-width="2" d="M1062.3805,-935.8648C1045.9732,-893.6746 1012.3992,-787.4102 1059,-720 1070.9133,-702.7669 1122.5275,-686.2499 1160.339,-676.1211"/>
<polygon fill="#c0c0c0" stroke="#c0c0c0" stroke-width="2" points="1161.32,-679.4823 1170.1069,-673.5628 1159.5464,-672.7107 1161.32,-679.4823"/>
</g>
<!-- 31 -->
<g id="node32" class="node">
<title>31</title>
<path fill="none" stroke="#59d856" stroke-width="2" d="M1216.641,-828C1216.641,-828 1173.359,-828 1173.359,-828 1167.359,-828 1161.359,-822 1161.359,-816 1161.359,-816 1161.359,-804 1161.359,-804 1161.359,-798 1167.359,-792 1173.359,-792 1173.359,-792 1216.641,-792 1216.641,-792 1222.641,-792 1228.641,-798 1228.641,-804 1228.641,-804 1228.641,-816 1228.641,-816 1228.641,-822 1222.641,-828 1216.641,-828"/>
<text text-anchor="middle" x="1195" y="-807" font-family="sans" font-size="10.00" fill="#000000">extract_fastq</text>
</g>
<!-- 4&#45;&gt;31 -->
<g id="edge94" class="edge">
<title>4-&gt;31</title>
<path fill="none" stroke="#c0c0c0" stroke-width="2" d="M1080.0966,-935.6545C1091.028,-916.647 1109.6495,-886.6129 1130,-864 1139.4629,-853.4851 1151.0185,-843.2304 1161.7481,-834.5316"/>
<polygon fill="#c0c0c0" stroke="#c0c0c0" stroke-width="2" points="1164.0739,-837.1544 1169.7436,-828.2043 1159.73,-831.6652 1164.0739,-837.1544"/>
</g>
<!-- 32 -->
<g id="node33" class="node">
<title>32</title>
<path fill="none" stroke="#b6d856" stroke-width="2" d="M1221.3095,-900C1221.3095,-900 1150.6905,-900 1150.6905,-900 1144.6905,-900 1138.6905,-894 1138.6905,-888 1138.6905,-888 1138.6905,-876 1138.6905,-876 1138.6905,-870 1144.6905,-864 1150.6905,-864 1150.6905,-864 1221.3095,-864 1221.3095,-864 1227.3095,-864 1233.3095,-870 1233.3095,-876 1233.3095,-876 1233.3095,-888 1233.3095,-888 1233.3095,-894 1227.3095,-900 1221.3095,-900"/>
<text text-anchor="middle" x="1186" y="-879" font-family="sans" font-size="10.00" fill="#000000">download_sra_files</text>
</g>
<!-- 4&#45;&gt;32 -->
<g id="edge95" class="edge">
<title>4-&gt;32</title>
<path fill="none" stroke="#c0c0c0" stroke-width="2" d="M1099.2717,-935.8314C1114.1088,-926.6221 1132.3015,-915.3301 1148.1862,-905.4706"/>
<polygon fill="#c0c0c0" stroke="#c0c0c0" stroke-width="2" points="1150.087,-908.4102 1156.7377,-900.1628 1146.3955,-902.4628 1150.087,-908.4102"/>
</g>
<!-- 36 -->
<g id="node37" class="node">
<title>36</title>
<path fill="none" stroke="#567bd8" stroke-width="2" d="M1297.98,-756C1297.98,-756 1246.02,-756 1246.02,-756 1240.02,-756 1234.02,-750 1234.02,-744 1234.02,-744 1234.02,-732 1234.02,-732 1234.02,-726 1240.02,-720 1246.02,-720 1246.02,-720 1297.98,-720 1297.98,-720 1303.98,-720 1309.98,-726 1309.98,-732 1309.98,-732 1309.98,-744 1309.98,-744 1309.98,-750 1303.98,-756 1297.98,-756"/>
<text text-anchor="middle" x="1272" y="-735" font-family="sans" font-size="10.00" fill="#000000">trim_adapators</text>
</g>
<!-- 4&#45;&gt;36 -->
<g id="edge102" class="edge">
<title>4-&gt;36</title>
<path fill="none" stroke="#c0c0c0" stroke-width="2" d="M1105.3082,-947.36C1150.134,-938.2076 1223.8425,-920.5011 1242,-900 1274.8265,-862.9366 1276.9771,-801.9314 1274.9273,-766.3053"/>
<polygon fill="#c0c0c0" stroke="#c0c0c0" stroke-width="2" points="1278.4026,-765.8377 1274.1856,-756.1183 1271.4211,-766.3461 1278.4026,-765.8377"/>
</g>
<!-- 4&#45;&gt;38 -->
<g id="edge109" class="edge">
<title>4-&gt;38</title>
<path fill="none" stroke="#c0c0c0" stroke-width="2" d="M1105.2319,-950.149C1165.3844,-942.9576 1284.5492,-925.8377 1317,-900 1355.7582,-869.1403 1406.5962,-887.8899 1482,-540 1492.6139,-491.0309 1465.0395,-436.3961 1444.9204,-404.733"/>
<polygon fill="#c0c0c0" stroke="#c0c0c0" stroke-width="2" points="1447.6378,-402.4946 1439.2242,-396.0555 1441.7859,-406.3359 1447.6378,-402.4946"/>
</g>
<!-- 4&#45;&gt;39 -->
<g id="edge112" class="edge">
<title>4-&gt;39</title>
<path fill="none" stroke="#c0c0c0" stroke-width="2" d="M1034.6532,-947.7268C972.4643,-934.4342 850,-897.1893 850,-810 850,-810 850,-810 850,-594 850,-552.3681 865.0328,-506.14 876.1881,-477.567"/>
<polygon fill="#c0c0c0" stroke="#c0c0c0" stroke-width="2" points="879.4578,-478.817 879.9412,-468.2332 872.9632,-476.2055 879.4578,-478.817"/>
</g>
<!-- 4&#45;&gt;40 -->
<g id="edge116" class="edge">
<title>4-&gt;40</title>
<path fill="none" stroke="#c0c0c0" stroke-width="2" d="M1054.9086,-935.7475C1034.8752,-909.6068 1002,-859.2121 1002,-810 1002,-810 1002,-810 1002,-594 1002,-551.9897 1019.0108,-505.8592 1031.6339,-477.4108"/>
<polygon fill="#c0c0c0" stroke="#c0c0c0" stroke-width="2" points="1034.906,-478.6713 1035.8808,-468.1214 1028.5398,-475.7607 1034.906,-478.6713"/>
</g>
<!-- 42 -->
<g id="node43" class="node">
<title>42</title>
<path fill="none" stroke="#68d856" stroke-width="2" d="M655.7114,-396C655.7114,-396 616.2886,-396 616.2886,-396 610.2886,-396 604.2886,-390 604.2886,-384 604.2886,-384 604.2886,-372 604.2886,-372 604.2886,-366 610.2886,-360 616.2886,-360 616.2886,-360 655.7114,-360 655.7114,-360 661.7114,-360 667.7114,-366 667.7114,-372 667.7114,-372 667.7114,-384 667.7114,-384 667.7114,-390 661.7114,-396 655.7114,-396"/>
<text text-anchor="middle" x="636" y="-375" font-family="sans" font-size="10.00" fill="#000000">all_samples</text>
</g>
<!-- 4&#45;&gt;42 -->
<g id="edge120" class="edge">
<title>4-&gt;42</title>
<path fill="none" stroke="#c0c0c0" stroke-width="2" d="M1034.7214,-948.5548C982.8992,-939.9378 889.5657,-921.8715 864,-900 704.2165,-763.3053 652.5695,-493.5671 639.6563,-406.0982"/>
<polygon fill="#c0c0c0" stroke="#c0c0c0" stroke-width="2" points="643.1115,-405.5348 638.2376,-396.1276 636.1813,-406.5209 643.1115,-405.5348"/>
</g>
<!-- 5 -->
<g id="node6" class="node">
<title>5</title>
<path fill="none" stroke="#88d856" stroke-width="2" d="M269.4189,-468C269.4189,-468 192.5811,-468 192.5811,-468 186.5811,-468 180.5811,-462 180.5811,-456 180.5811,-456 180.5811,-444 180.5811,-444 180.5811,-438 186.5811,-432 192.5811,-432 192.5811,-432 269.4189,-432 269.4189,-432 275.4189,-432 281.4189,-438 281.4189,-444 281.4189,-444 281.4189,-456 281.4189,-456 281.4189,-462 275.4189,-468 269.4189,-468"/>
<text text-anchor="middle" x="231" y="-447" font-family="sans" font-size="10.00" fill="#000000">extract_GeneSymbol</text>
</g>
<!-- 5&#45;&gt;3 -->
<g id="edge25" class="edge">
<title>5-&gt;3</title>
<path fill="none" stroke="#c0c0c0" stroke-width="2" d="M211.3173,-431.8314C201.8949,-423.1337 190.4599,-412.5783 180.2204,-403.1265"/>
<polygon fill="#c0c0c0" stroke="#c0c0c0" stroke-width="2" points="182.3984,-400.3738 172.6764,-396.1628 177.6505,-405.5175 182.3984,-400.3738"/>
</g>
<!-- 6&#45;&gt;0 -->
<g id="edge18" class="edge">
<title>6-&gt;0</title>
<path fill="none" stroke="#c0c0c0" stroke-width="2" d="M150.4421,-287.6839C143.964,-238.1339 129.3727,-103.0862 158,-72 190.5487,-36.6556 525.5993,-22.8062 639.4092,-19.0991"/>
<polygon fill="#c0c0c0" stroke="#c0c0c0" stroke-width="2" points="639.8311,-22.5875 649.7148,-18.7716 639.6087,-15.591 639.8311,-22.5875"/>
</g>
<!-- 7 -->
<g id="node8" class="node">
<title>7</title>
<path fill="none" stroke="#5663d8" stroke-width="2" d="M1161.7593,-540C1161.7593,-540 1102.2407,-540 1102.2407,-540 1096.2407,-540 1090.2407,-534 1090.2407,-528 1090.2407,-528 1090.2407,-516 1090.2407,-516 1090.2407,-510 1096.2407,-504 1102.2407,-504 1102.2407,-504 1161.7593,-504 1161.7593,-504 1167.7593,-504 1173.7593,-510 1173.7593,-516 1173.7593,-516 1173.7593,-528 1173.7593,-528 1173.7593,-534 1167.7593,-540 1161.7593,-540"/>
<text text-anchor="middle" x="1132" y="-519" font-family="sans" font-size="10.00" fill="#000000">outlier_detection</text>
</g>
<!-- 7&#45;&gt;37 -->
<g id="edge105" class="edge">
<title>7-&gt;37</title>
<path fill="none" stroke="#c0c0c0" stroke-width="2" d="M1173.884,-512.4798C1214.3415,-502.84 1277.0939,-486.7131 1330,-468 1331.42,-467.4978 1332.8599,-466.9684 1334.3085,-466.419"/>
<polygon fill="#c0c0c0" stroke="#c0c0c0" stroke-width="2" points="1335.9033,-469.5503 1343.8781,-462.5751 1333.2941,-463.0547 1335.9033,-469.5503"/>
</g>
<!-- 7&#45;&gt;38 -->
<g id="edge110" class="edge">
<title>7-&gt;38</title>
<path fill="none" stroke="#c0c0c0" stroke-width="2" d="M1168.9376,-503.9081C1225.5038,-476.2022 1332.9461,-423.5774 1389.3433,-395.9543"/>
<polygon fill="#c0c0c0" stroke="#c0c0c0" stroke-width="2" points="1391.1579,-398.9628 1398.599,-391.4209 1388.0788,-392.6764 1391.1579,-398.9628"/>
</g>
<!-- 7&#45;&gt;39 -->
<g id="edge114" class="edge">
<title>7-&gt;39</title>
<path fill="none" stroke="#c0c0c0" stroke-width="2" d="M1090.0549,-509.6228C1046.4785,-496.7641 978.5054,-476.7065 933.6158,-463.4604"/>
<polygon fill="#c0c0c0" stroke="#c0c0c0" stroke-width="2" points="934.4291,-460.0513 923.8474,-460.5779 932.4479,-466.7651 934.4291,-460.0513"/>
</g>
<!-- 7&#45;&gt;40 -->
<g id="edge118" class="edge">
<title>7-&gt;40</title>
<path fill="none" stroke="#c0c0c0" stroke-width="2" d="M1110.0462,-503.8314C1099.3305,-494.9632 1086.2811,-484.1637 1074.691,-474.5718"/>
<polygon fill="#c0c0c0" stroke="#c0c0c0" stroke-width="2" points="1076.8822,-471.8422 1066.9467,-468.1628 1072.4192,-477.2349 1076.8822,-471.8422"/>
</g>
<!-- 41 -->
<g id="node42" class="node">
<title>41</title>
<path fill="none" stroke="#569ad8" stroke-width="2" d="M820.98,-396C820.98,-396 769.02,-396 769.02,-396 763.02,-396 757.02,-390 757.02,-384 757.02,-384 757.02,-372 757.02,-372 757.02,-366 763.02,-360 769.02,-360 769.02,-360 820.98,-360 820.98,-360 826.98,-360 832.98,-366 832.98,-372 832.98,-372 832.98,-384 832.98,-384 832.98,-390 826.98,-396 820.98,-396"/>
<text text-anchor="middle" x="795" y="-375" font-family="sans" font-size="10.00" fill="#000000">gather_outliers</text>
</g>
<!-- 7&#45;&gt;41 -->
<g id="edge119" class="edge">
<title>7-&gt;41</title>
<path fill="none" stroke="#c0c0c0" stroke-width="2" d="M1140.6129,-503.7308C1148.6622,-483.6483 1157.1037,-451.635 1140,-432 1101.6879,-388.0176 937.457,-406.0484 880,-396 868.0434,-393.909 855.2051,-391.354 843.2208,-388.8334"/>
<polygon fill="#c0c0c0" stroke="#c0c0c0" stroke-width="2" points="843.9033,-385.4003 833.3929,-386.7351 842.4417,-392.246 843.9033,-385.4003"/>
</g>
<!-- 7&#45;&gt;42 -->
<g id="edge122" class="edge">
<title>7-&gt;42</title>
<path fill="none" stroke="#c0c0c0" stroke-width="2" d="M1132.5638,-503.9982C1132.1435,-483.2213 1127.9631,-449.6533 1107,-432 1045.6712,-380.3543 827.505,-406.3658 748,-396 724.6724,-392.9586 698.7292,-388.8364 677.6904,-385.3042"/>
<polygon fill="#c0c0c0" stroke="#c0c0c0" stroke-width="2" points="678.2336,-381.8464 667.7892,-383.625 677.0631,-388.7479 678.2336,-381.8464"/>
</g>
<!-- 8&#45;&gt;0 -->
<g id="edge11" class="edge">
<title>8-&gt;0</title>
<path fill="none" stroke="#c0c0c0" stroke-width="2" d="M92.3322,-215.7403C86.7192,-181.9325 80.4385,-109.615 120,-72 157.6332,-36.2184 520.8981,-22.5392 639.6467,-19.0015"/>
<polygon fill="#c0c0c0" stroke="#c0c0c0" stroke-width="2" points="639.8208,-22.498 649.7147,-18.7086 639.6171,-15.501 639.8208,-22.498"/>
</g>
<!-- 9 -->
<g id="node10" class="node">
<title>9</title>
<path fill="none" stroke="#d87556" stroke-width="2" d="M1510,-108C1510,-108 1480,-108 1480,-108 1474,-108 1468,-102 1468,-96 1468,-96 1468,-84 1468,-84 1468,-78 1474,-72 1480,-72 1480,-72 1510,-72 1510,-72 1516,-72 1522,-78 1522,-84 1522,-84 1522,-96 1522,-96 1522,-102 1516,-108 1510,-108"/>
<text text-anchor="middle" x="1495" y="-87" font-family="sans" font-size="10.00" fill="#000000">plot_jtk</text>
</g>
<!-- 9&#45;&gt;0 -->
<g id="edge2" class="edge">
<title>9-&gt;0</title>
<path fill="none" stroke="#c0c0c0" stroke-width="2" d="M1467.8383,-82.1398C1454.1947,-78.4898 1437.3421,-74.4296 1422,-72 1153.0158,-29.4039 823.9957,-20.3547 714.4539,-18.478"/>
<polygon fill="#c0c0c0" stroke="#c0c0c0" stroke-width="2" points="714.3064,-14.9752 704.2512,-18.3134 714.1934,-21.9743 714.3064,-14.9752"/>
</g>
<!-- 10 -->
<g id="node11" class="node">
<title>10</title>
<path fill="none" stroke="#56d8c1" stroke-width="2" d="M1444.5447,-324C1444.5447,-324 1407.4553,-324 1407.4553,-324 1401.4553,-324 1395.4553,-318 1395.4553,-312 1395.4553,-312 1395.4553,-300 1395.4553,-300 1395.4553,-294 1401.4553,-288 1407.4553,-288 1407.4553,-288 1444.5447,-288 1444.5447,-288 1450.5447,-288 1456.5447,-294 1456.5447,-300 1456.5447,-300 1456.5447,-312 1456.5447,-312 1456.5447,-318 1450.5447,-324 1444.5447,-324"/>
<text text-anchor="middle" x="1426" y="-303" font-family="sans" font-size="10.00" fill="#000000">process_jtk</text>
</g>
<!-- 10&#45;&gt;9 -->
<g id="edge35" class="edge">
<title>10-&gt;9</title>
<path fill="none" stroke="#c0c0c0" stroke-width="2" d="M1445.0676,-287.6989C1454.0673,-277.9539 1464.1038,-265.2599 1470,-252 1489.4263,-208.3129 1494.122,-152.1937 1495.0549,-118.7765"/>
<polygon fill="#c0c0c0" stroke="#c0c0c0" stroke-width="2" points="1498.5617,-118.4264 1495.2429,-108.3648 1491.5629,-118.3 1498.5617,-118.4264"/>
</g>
<!-- 11 -->
<g id="node12" class="node">
<title>11</title>
<path fill="none" stroke="#d8bc56" stroke-width="2" d="M1398.2503,-180C1398.2503,-180 1313.7497,-180 1313.7497,-180 1307.7497,-180 1301.7497,-174 1301.7497,-168 1301.7497,-168 1301.7497,-156 1301.7497,-156 1301.7497,-150 1307.7497,-144 1313.7497,-144 1313.7497,-144 1398.2503,-144 1398.2503,-144 1404.2503,-144 1410.2503,-150 1410.2503,-156 1410.2503,-156 1410.2503,-168 1410.2503,-168 1410.2503,-174 1404.2503,-180 1398.2503,-180"/>
<text text-anchor="middle" x="1356" y="-159" font-family="sans" font-size="10.00" fill="#000000">plot_overlapped_genes</text>
</g>
<!-- 10&#45;&gt;11 -->
<g id="edge40" class="edge">
<title>10-&gt;11</title>
<path fill="none" stroke="#c0c0c0" stroke-width="2" d="M1417.1345,-287.7623C1405.0372,-262.8764 1383.2622,-218.0822 1369.2302,-189.2165"/>
<polygon fill="#c0c0c0" stroke="#c0c0c0" stroke-width="2" points="1372.3133,-187.5531 1364.7936,-180.0896 1366.0178,-190.6135 1372.3133,-187.5531"/>
</g>
<!-- 12 -->
<g id="node13" class="node">
<title>12</title>
<path fill="none" stroke="#70d856" stroke-width="2" d="M1287,-252C1287,-252 1257,-252 1257,-252 1251,-252 1245,-246 1245,-240 1245,-240 1245,-228 1245,-228 1245,-222 1251,-216 1257,-216 1257,-216 1287,-216 1287,-216 1293,-216 1299,-222 1299,-228 1299,-228 1299,-240 1299,-240 1299,-246 1293,-252 1287,-252"/>
<text text-anchor="middle" x="1272" y="-231" font-family="sans" font-size="10.00" fill="#000000">all_jtk</text>
</g>
<!-- 10&#45;&gt;12 -->
<g id="edge41" class="edge">
<title>10-&gt;12</title>
<path fill="none" stroke="#c0c0c0" stroke-width="2" d="M1395.2059,-291.6028C1370.1899,-279.907 1334.8485,-263.3837 1308.428,-251.0313"/>
<polygon fill="#c0c0c0" stroke="#c0c0c0" stroke-width="2" points="1309.6746,-247.7505 1299.1334,-246.6858 1306.7099,-254.0917 1309.6746,-247.7505"/>
</g>
<!-- 13 -->
<g id="node14" class="node">
<title>13</title>
<path fill="none" stroke="#d85e56" stroke-width="2" d="M1214.005,-108C1214.005,-108 1181.995,-108 1181.995,-108 1175.995,-108 1169.995,-102 1169.995,-96 1169.995,-96 1169.995,-84 1169.995,-84 1169.995,-78 1175.995,-72 1181.995,-72 1181.995,-72 1214.005,-72 1214.005,-72 1220.005,-72 1226.005,-78 1226.005,-84 1226.005,-84 1226.005,-96 1226.005,-96 1226.005,-102 1220.005,-108 1214.005,-108"/>
<text text-anchor="middle" x="1198" y="-87" font-family="sans" font-size="10.00" fill="#000000">plot_PCA</text>
</g>
<!-- 10&#45;&gt;13 -->
<g id="edge45" class="edge">
<title>10-&gt;13</title>
<path fill="none" stroke="#c0c0c0" stroke-width="2" d="M1431.5408,-287.7532C1440.2843,-254.9211 1453.0189,-185.4571 1419,-144 1407.365,-129.821 1296.2589,-107.7877 1236.1602,-96.7636"/>
<polygon fill="#c0c0c0" stroke="#c0c0c0" stroke-width="2" points="1236.7361,-93.311 1226.2711,-94.9645 1235.4831,-100.1979 1236.7361,-93.311"/>
</g>
<!-- 16 -->
<g id="node17" class="node">
<title>16</title>
<path fill="none" stroke="#56d8a2" stroke-width="2" d="M1401.2723,-108C1401.2723,-108 1346.7277,-108 1346.7277,-108 1340.7277,-108 1334.7277,-102 1334.7277,-96 1334.7277,-96 1334.7277,-84 1334.7277,-84 1334.7277,-78 1340.7277,-72 1346.7277,-72 1346.7277,-72 1401.2723,-72 1401.2723,-72 1407.2723,-72 1413.2723,-78 1413.2723,-84 1413.2723,-84 1413.2723,-96 1413.2723,-96 1413.2723,-102 1407.2723,-108 1401.2723,-108"/>
<text text-anchor="middle" x="1374" y="-87" font-family="sans" font-size="10.00" fill="#000000">plot_robustness</text>
</g>
<!-- 10&#45;&gt;16 -->
<g id="edge53" class="edge">
<title>10-&gt;16</title>
<path fill="none" stroke="#c0c0c0" stroke-width="2" d="M1437.3196,-287.7678C1442.9396,-277.6415 1449.1294,-264.5789 1452,-252 1462.6792,-205.2031 1474.2771,-186.5174 1452,-144 1445.2954,-131.2039 1434.0288,-120.8372 1422.1132,-112.7373"/>
<polygon fill="#c0c0c0" stroke="#c0c0c0" stroke-width="2" points="1423.7053,-109.6038 1413.3781,-107.2376 1419.9757,-115.5275 1423.7053,-109.6038"/>
</g>
<!-- 11&#45;&gt;9 -->
<g id="edge33" class="edge">
<title>11-&gt;9</title>
<path fill="none" stroke="#c0c0c0" stroke-width="2" d="M1391.0756,-143.8314C1411.8127,-133.0898 1438.02,-119.5148 1458.9287,-108.6844"/>
<polygon fill="#c0c0c0" stroke="#c0c0c0" stroke-width="2" points="1460.5584,-111.782 1467.8281,-104.0747 1457.3388,-105.5663 1460.5584,-111.782"/>
</g>
<!-- 11&#45;&gt;13 -->
<g id="edge47" class="edge">
<title>11-&gt;13</title>
<path fill="none" stroke="#c0c0c0" stroke-width="2" d="M1316.1299,-143.8314C1291.4341,-132.5776 1259.9131,-118.2136 1235.6439,-107.1542"/>
<polygon fill="#c0c0c0" stroke="#c0c0c0" stroke-width="2" points="1236.9466,-103.9016 1226.3955,-102.9397 1234.0438,-110.2714 1236.9466,-103.9016"/>
</g>
<!-- 11&#45;&gt;16 -->
<g id="edge54" class="edge">
<title>11-&gt;16</title>
<path fill="none" stroke="#c0c0c0" stroke-width="2" d="M1360.5422,-143.8314C1362.4884,-136.0463 1364.8068,-126.7729 1366.9663,-118.1347"/>
<polygon fill="#c0c0c0" stroke="#c0c0c0" stroke-width="2" points="1370.3668,-118.9636 1369.3967,-108.4133 1363.5758,-117.2658 1370.3668,-118.9636"/>
</g>
<!-- 19 -->
<g id="node20" class="node">
<title>19</title>
<path fill="none" stroke="#d8b456" stroke-width="2" d="M1139.8348,-108C1139.8348,-108 1094.1652,-108 1094.1652,-108 1088.1652,-108 1082.1652,-102 1082.1652,-96 1082.1652,-96 1082.1652,-84 1082.1652,-84 1082.1652,-78 1088.1652,-72 1094.1652,-72 1094.1652,-72 1139.8348,-72 1139.8348,-72 1145.8348,-72 1151.8348,-78 1151.8348,-84 1151.8348,-84 1151.8348,-96 1151.8348,-96 1151.8348,-102 1145.8348,-108 1139.8348,-108"/>
<text text-anchor="middle" x="1117" y="-87" font-family="sans" font-size="10.00" fill="#000000">plot_bootejtk</text>
</g>
<!-- 11&#45;&gt;19 -->
<g id="edge59" class="edge">
<title>11-&gt;19</title>
<path fill="none" stroke="#c0c0c0" stroke-width="2" d="M1301.6775,-148.7941C1264.4978,-139.3371 1213.9844,-125.6706 1161.4123,-107.9564"/>
<polygon fill="#c0c0c0" stroke="#c0c0c0" stroke-width="2" points="1162.5174,-104.6354 1151.9229,-104.7219 1160.259,-111.2611 1162.5174,-104.6354"/>
</g>
<!-- 28 -->
<g id="node29" class="node">
<title>28</title>
<path fill="none" stroke="#d8a456" stroke-width="2" d="M757.2974,-108C757.2974,-108 676.7026,-108 676.7026,-108 670.7026,-108 664.7026,-102 664.7026,-96 664.7026,-96 664.7026,-84 664.7026,-84 664.7026,-78 670.7026,-72 676.7026,-72 676.7026,-72 757.2974,-72 757.2974,-72 763.2974,-72 769.2974,-78 769.2974,-84 769.2974,-84 769.2974,-96 769.2974,-96 769.2974,-102 763.2974,-108 757.2974,-108"/>
<text text-anchor="middle" x="717" y="-87" font-family="sans" font-size="10.00" fill="#000000">prepare_supplemental</text>
</g>
<!-- 11&#45;&gt;28 -->
<g id="edge86" class="edge">
<title>11-&gt;28</title>
<path fill="none" stroke="#c0c0c0" stroke-width="2" d="M1301.7243,-156.5834C1209.5965,-147.2948 1016.7586,-127.4434 854,-108 829.6196,-105.0875 802.8346,-101.6265 779.4651,-98.5213"/>
<polygon fill="#c0c0c0" stroke="#c0c0c0" stroke-width="2" points="779.7087,-95.0228 769.3335,-97.169 778.7825,-101.9613 779.7087,-95.0228"/>
</g>
<!-- 12&#45;&gt;0 -->
<g id="edge8" class="edge">
<title>12-&gt;0</title>
<path fill="none" stroke="#c0c0c0" stroke-width="2" d="M1273.9972,-215.8122C1276.6088,-181.7948 1276.7014,-108.6757 1235,-72 1195.9372,-37.6449 832.9331,-23.0095 714.3093,-19.1178"/>
<polygon fill="#c0c0c0" stroke="#c0c0c0" stroke-width="2" points="714.3595,-15.6177 704.2522,-18.7945 714.1345,-22.6141 714.3595,-15.6177"/>
</g>
<!-- 12&#45;&gt;11 -->
<g id="edge38" class="edge">
<title>12-&gt;11</title>
<path fill="none" stroke="#c0c0c0" stroke-width="2" d="M1293.1967,-215.8314C1303.4434,-207.0485 1315.9003,-196.3712 1327.0097,-186.8489"/>
<polygon fill="#c0c0c0" stroke="#c0c0c0" stroke-width="2" points="1329.4952,-189.3282 1334.81,-180.1628 1324.9397,-184.0134 1329.4952,-189.3282"/>
</g>
<!-- 20 -->
<g id="node21" class="node">
<title>20</title>
<path fill="none" stroke="#566bd8" stroke-width="2" d="M959.2593,-108C959.2593,-108 874.7407,-108 874.7407,-108 868.7407,-108 862.7407,-102 862.7407,-96 862.7407,-96 862.7407,-84 862.7407,-84 862.7407,-78 868.7407,-72 874.7407,-72 874.7407,-72 959.2593,-72 959.2593,-72 965.2593,-72 971.2593,-78 971.2593,-84 971.2593,-84 971.2593,-96 971.2593,-96 971.2593,-102 965.2593,-108 959.2593,-108"/>
<text text-anchor="middle" x="917" y="-87" font-family="sans" font-size="10.00" fill="#000000">plot_compare_rhythms</text>
</g>
<!-- 12&#45;&gt;20 -->
<g id="edge60" class="edge">
<title>12-&gt;20</title>
<path fill="none" stroke="#c0c0c0" stroke-width="2" d="M1244.9646,-220.2461C1241.9534,-218.7848 1238.9203,-217.3431 1236,-216 1161.0821,-181.5426 1141.7561,-174.1414 1065,-144 1036.5439,-132.8256 1004.7229,-121.1148 977.9,-111.4663"/>
<polygon fill="#c0c0c0" stroke="#c0c0c0" stroke-width="2" points="978.854,-108.0902 968.2595,-108.0097 976.4914,-114.6795 978.854,-108.0902"/>
</g>
<!-- 27 -->
<g id="node28" class="node">
<title>27</title>
<path fill="none" stroke="#56d892" stroke-width="2" d="M597.0272,-108C597.0272,-108 524.9728,-108 524.9728,-108 518.9728,-108 512.9728,-102 512.9728,-96 512.9728,-96 512.9728,-84 512.9728,-84 512.9728,-78 518.9728,-72 524.9728,-72 524.9728,-72 597.0272,-72 597.0272,-72 603.0272,-72 609.0272,-78 609.0272,-84 609.0272,-84 609.0272,-96 609.0272,-96 609.0272,-102 603.0272,-108 597.0272,-108"/>
<text text-anchor="middle" x="561" y="-87" font-family="sans" font-size="10.00" fill="#000000">assess_stable_genes</text>
</g>
<!-- 12&#45;&gt;27 -->
<g id="edge75" class="edge">
<title>12-&gt;27</title>
<path fill="none" stroke="#c0c0c0" stroke-width="2" d="M1244.9264,-219.0809C1241.9754,-217.8749 1238.9657,-216.811 1236,-216 1015.9609,-155.8309 942.7646,-244.6498 724,-180 675.6867,-165.7223 625.7878,-135.4734 594.1394,-113.9907"/>
<polygon fill="#c0c0c0" stroke="#c0c0c0" stroke-width="2" points="595.9337,-110.9766 585.7134,-108.1845 591.9618,-116.7407 595.9337,-110.9766"/>
</g>
<!-- 12&#45;&gt;28 -->
<g id="edge84" class="edge">
<title>12-&gt;28</title>
<path fill="none" stroke="#c0c0c0" stroke-width="2" d="M1244.9229,-219.0937C1241.9726,-217.8852 1238.964,-216.8172 1236,-216 1132.2403,-187.3929 839.82,-243.6139 753,-180 733.464,-165.6858 724.5159,-139.0229 720.4253,-118.419"/>
<polygon fill="#c0c0c0" stroke="#c0c0c0" stroke-width="2" points="723.83,-117.5635 718.6986,-108.2942 716.9296,-118.7403 723.83,-117.5635"/>
</g>
<!-- 13&#45;&gt;0 -->
<g id="edge1" class="edge">
<title>13-&gt;0</title>
<path fill="none" stroke="#c0c0c0" stroke-width="2" d="M1169.7022,-75.0444C1166.8139,-73.8801 1163.8818,-72.8347 1161,-72 1076.9634,-47.6579 812.4775,-27.3812 714.2281,-20.5059"/>
<polygon fill="#c0c0c0" stroke="#c0c0c0" stroke-width="2" points="714.3854,-17.0085 704.1672,-19.8082 713.9011,-23.9917 714.3854,-17.0085"/>
</g>
<!-- 14 -->
<g id="node15" class="node">
<title>14</title>
<path fill="none" stroke="#c6d856" stroke-width="2" d="M1214.8186,-252C1214.8186,-252 1159.1814,-252 1159.1814,-252 1153.1814,-252 1147.1814,-246 1147.1814,-240 1147.1814,-240 1147.1814,-228 1147.1814,-228 1147.1814,-222 1153.1814,-216 1159.1814,-216 1159.1814,-216 1214.8186,-216 1214.8186,-216 1220.8186,-216 1226.8186,-222 1226.8186,-228 1226.8186,-228 1226.8186,-240 1226.8186,-240 1226.8186,-246 1220.8186,-252 1214.8186,-252"/>
<text text-anchor="middle" x="1187" y="-231" font-family="sans" font-size="10.00" fill="#000000">classify_studies</text>
</g>
<!-- 14&#45;&gt;13 -->
<g id="edge44" class="edge">
<title>14-&gt;13</title>
<path fill="none" stroke="#c0c0c0" stroke-width="2" d="M1188.3932,-215.7623C1190.2694,-191.201 1193.6269,-147.2474 1195.8341,-118.3541"/>
<polygon fill="#c0c0c0" stroke="#c0c0c0" stroke-width="2" points="1199.3462,-118.3272 1196.6182,-108.0896 1192.3666,-117.794 1199.3462,-118.3272"/>
</g>
<!-- 15 -->
<g id="node16" class="node">
<title>15</title>
<path fill="none" stroke="#56b1d8" stroke-width="2" d="M1044.1041,-180C1044.1041,-180 1005.8959,-180 1005.8959,-180 999.8959,-180 993.8959,-174 993.8959,-168 993.8959,-168 993.8959,-156 993.8959,-156 993.8959,-150 999.8959,-144 1005.8959,-144 1005.8959,-144 1044.1041,-144 1044.1041,-144 1050.1041,-144 1056.1041,-150 1056.1041,-156 1056.1041,-156 1056.1041,-168 1056.1041,-168 1056.1041,-174 1050.1041,-180 1044.1041,-180"/>
<text text-anchor="middle" x="1025" y="-159" font-family="sans" font-size="10.00" fill="#000000">study_table</text>
</g>
<!-- 14&#45;&gt;15 -->
<g id="edge49" class="edge">
<title>14-&gt;15</title>
<path fill="none" stroke="#c0c0c0" stroke-width="2" d="M1146.955,-216.2022C1122.1133,-205.1615 1090.2972,-191.021 1065.391,-179.9516"/>
<polygon fill="#c0c0c0" stroke="#c0c0c0" stroke-width="2" points="1066.7724,-176.7354 1056.2127,-175.8723 1063.9294,-183.1321 1066.7724,-176.7354"/>
</g>
<!-- 15&#45;&gt;0 -->
<g id="edge17" class="edge">
<title>15-&gt;0</title>
<path fill="none" stroke="#c0c0c0" stroke-width="2" d="M1021.0374,-143.6348C1015.5426,-122.8378 1003.5094,-89.5681 980,-72 938.4734,-40.9681 785.8214,-25.9548 714.3598,-20.5052"/>
<polygon fill="#c0c0c0" stroke="#c0c0c0" stroke-width="2" points="714.2533,-16.9878 704.0223,-19.7407 713.7369,-23.9688 714.2533,-16.9878"/>
</g>
<!-- 15&#45;&gt;13 -->
<g id="edge42" class="edge">
<title>15-&gt;13</title>
<path fill="none" stroke="#c0c0c0" stroke-width="2" d="M1056.0604,-150.4267C1081.8536,-140.6491 1119.6508,-125.9381 1160.5026,-108.0826"/>
<polygon fill="#c0c0c0" stroke="#c0c0c0" stroke-width="2" points="1162.0795,-111.2125 1169.82,-103.9781 1159.2576,-104.8065 1162.0795,-111.2125"/>
</g>
<!-- 15&#45;&gt;28 -->
<g id="edge79" class="edge">
<title>15-&gt;28</title>
<path fill="none" stroke="#c0c0c0" stroke-width="2" d="M993.8184,-147.1708C990.8705,-146.0117 987.9001,-144.9317 985,-144 916.0843,-121.8604 834.1666,-106.9349 779.1964,-98.4854"/>
<polygon fill="#c0c0c0" stroke="#c0c0c0" stroke-width="2" points="779.6659,-95.0167 769.2551,-96.9828 778.6197,-101.9381 779.6659,-95.0167"/>
</g>
<!-- 16&#45;&gt;0 -->
<g id="edge21" class="edge">
<title>16-&gt;0</title>
<path fill="none" stroke="#c0c0c0" stroke-width="2" d="M1334.3568,-80.6803C1319.8409,-77.5388 1303.2399,-74.2602 1288,-72 1071.9917,-39.9637 809.9961,-24.6025 714.2875,-19.7579"/>
<polygon fill="#c0c0c0" stroke="#c0c0c0" stroke-width="2" points="714.398,-16.2591 704.2362,-19.2571 714.0496,-23.2505 714.398,-16.2591"/>
</g>
<!-- 17 -->
<g id="node18" class="node">
<title>17</title>
<path fill="none" stroke="#5692d8" stroke-width="2" d="M648.981,-324C648.981,-324 577.019,-324 577.019,-324 571.019,-324 565.019,-318 565.019,-312 565.019,-312 565.019,-300 565.019,-300 565.019,-294 571.019,-288 577.019,-288 577.019,-288 648.981,-288 648.981,-288 654.981,-288 660.981,-294 660.981,-300 660.981,-300 660.981,-312 660.981,-312 660.981,-318 654.981,-324 648.981,-324"/>
<text text-anchor="middle" x="613" y="-303" font-family="sans" font-size="10.00" fill="#000000">plot_consensus_pca</text>
</g>
<!-- 17&#45;&gt;0 -->
<g id="edge20" class="edge">
<title>17-&gt;0</title>
<path fill="none" stroke="#c0c0c0" stroke-width="2" d="M615.1481,-287.8261C620.099,-248.1227 633.6321,-150.8808 656,-72 658.4852,-63.2359 661.8401,-53.9147 665.1384,-45.5273"/>
<polygon fill="#c0c0c0" stroke="#c0c0c0" stroke-width="2" points="668.4067,-46.7816 668.9289,-36.1996 661.9216,-44.1463 668.4067,-46.7816"/>
</g>
<!-- 18 -->
<g id="node19" class="node">
<title>18</title>
<path fill="none" stroke="#d8d356" stroke-width="2" d="M828.2624,-180C828.2624,-180 773.7376,-180 773.7376,-180 767.7376,-180 761.7376,-174 761.7376,-168 761.7376,-168 761.7376,-156 761.7376,-156 761.7376,-150 767.7376,-144 773.7376,-144 773.7376,-144 828.2624,-144 828.2624,-144 834.2624,-144 840.2624,-150 840.2624,-156 840.2624,-156 840.2624,-168 840.2624,-168 840.2624,-174 834.2624,-180 828.2624,-180"/>
<text text-anchor="middle" x="801" y="-159" font-family="sans" font-size="10.00" fill="#000000">gather_bootejtk</text>
</g>
<!-- 18&#45;&gt;0 -->
<g id="edge6" class="edge">
<title>18-&gt;0</title>
<path fill="none" stroke="#c0c0c0" stroke-width="2" d="M800.5718,-143.9059C799.2282,-124.2746 794.42,-92.9396 778,-72 761.8273,-51.3758 735.5325,-37.6739 713.8267,-29.2336"/>
<polygon fill="#c0c0c0" stroke="#c0c0c0" stroke-width="2" points="714.8234,-25.8713 704.2296,-25.7199 712.4167,-32.4446 714.8234,-25.8713"/>
</g>
<!-- 18&#45;&gt;19 -->
<g id="edge58" class="edge">
<title>18-&gt;19</title>
<path fill="none" stroke="#c0c0c0" stroke-width="2" d="M840.3851,-146.6602C843.2832,-145.7073 846.1764,-144.8083 849,-144 926.2148,-121.8968 1018.4486,-105.42 1072.1081,-96.7891"/>
<polygon fill="#c0c0c0" stroke="#c0c0c0" stroke-width="2" points="1072.9829,-100.194 1082.3098,-95.1681 1071.8844,-93.2808 1072.9829,-100.194"/>
</g>
<!-- 18&#45;&gt;20 -->
<g id="edge61" class="edge">
<title>18-&gt;20</title>
<path fill="none" stroke="#c0c0c0" stroke-width="2" d="M830.2717,-143.8314C845.1088,-134.6221 863.3015,-123.3301 879.1862,-113.4706"/>
<polygon fill="#c0c0c0" stroke="#c0c0c0" stroke-width="2" points="881.087,-116.4102 887.7377,-108.1628 877.3955,-110.4628 881.087,-116.4102"/>
</g>
<!-- 18&#45;&gt;28 -->
<g id="edge81" class="edge">
<title>18-&gt;28</title>
<path fill="none" stroke="#c0c0c0" stroke-width="2" d="M779.8033,-143.8314C769.5566,-135.0485 757.0997,-124.3712 745.9903,-114.8489"/>
<polygon fill="#c0c0c0" stroke="#c0c0c0" stroke-width="2" points="748.0603,-112.0134 738.19,-108.1628 743.5048,-117.3282 748.0603,-112.0134"/>
</g>
<!-- 19&#45;&gt;0 -->
<g id="edge4" class="edge">
<title>19-&gt;0</title>
<path fill="none" stroke="#c0c0c0" stroke-width="2" d="M1082.2222,-76.1897C1077.4911,-74.6166 1072.6602,-73.1634 1068,-72 940.5725,-40.1887 784.7871,-25.7423 714.5307,-20.4901"/>
<polygon fill="#c0c0c0" stroke="#c0c0c0" stroke-width="2" points="714.6303,-16.9882 704.4025,-19.7528 714.122,-23.9697 714.6303,-16.9882"/>
</g>
<!-- 20&#45;&gt;0 -->
<g id="edge22" class="edge">
<title>20-&gt;0</title>
<path fill="none" stroke="#c0c0c0" stroke-width="2" d="M862.5403,-73.6621C817.1206,-60.0362 753.6307,-40.9892 713.9393,-29.0818"/>
<polygon fill="#c0c0c0" stroke="#c0c0c0" stroke-width="2" points="714.7267,-25.664 704.1427,-26.1428 712.7152,-32.3687 714.7267,-25.664"/>
</g>
<!-- 21 -->
<g id="node22" class="node">
<title>21</title>
<path fill="none" stroke="#d8cb56" stroke-width="2" d="M964.1871,-180C964.1871,-180 869.8129,-180 869.8129,-180 863.8129,-180 857.8129,-174 857.8129,-168 857.8129,-168 857.8129,-156 857.8129,-156 857.8129,-150 863.8129,-144 869.8129,-144 869.8129,-144 964.1871,-144 964.1871,-144 970.1871,-144 976.1871,-150 976.1871,-156 976.1871,-156 976.1871,-168 976.1871,-168 976.1871,-174 970.1871,-180 964.1871,-180"/>
<text text-anchor="middle" x="917" y="-159" font-family="sans" font-size="10.00" fill="#000000">gather_compare_rhythms</text>
</g>
<!-- 21&#45;&gt;0 -->
<g id="edge5" class="edge">
<title>21-&gt;0</title>
<path fill="none" stroke="#c0c0c0" stroke-width="2" d="M896.7546,-143.7454C874.4495,-124.2619 836.9556,-93.323 801,-72 773.0078,-55.3996 738.9784,-40.9457 713.6544,-31.18"/>
<polygon fill="#c0c0c0" stroke="#c0c0c0" stroke-width="2" points="714.6556,-27.8165 704.0643,-27.5447 712.1744,-34.3621 714.6556,-27.8165"/>
</g>
<!-- 21&#45;&gt;20 -->
<g id="edge62" class="edge">
<title>21-&gt;20</title>
<path fill="none" stroke="#c0c0c0" stroke-width="2" d="M917,-143.8314C917,-136.131 917,-126.9743 917,-118.4166"/>
<polygon fill="#c0c0c0" stroke="#c0c0c0" stroke-width="2" points="920.5001,-118.4132 917,-108.4133 913.5001,-118.4133 920.5001,-118.4132"/>
</g>
<!-- 22 -->
<g id="node23" class="node">
<title>22</title>
<path fill="none" stroke="#56d86b" stroke-width="2" d="M427.6487,-252C427.6487,-252 364.3513,-252 364.3513,-252 358.3513,-252 352.3513,-246 352.3513,-240 352.3513,-240 352.3513,-228 352.3513,-228 352.3513,-222 358.3513,-216 364.3513,-216 364.3513,-216 427.6487,-216 427.6487,-216 433.6487,-216 439.6487,-222 439.6487,-228 439.6487,-228 439.6487,-240 439.6487,-240 439.6487,-246 433.6487,-252 427.6487,-252"/>
<text text-anchor="middle" x="396" y="-231" font-family="sans" font-size="10.00" fill="#000000">gather_spline_fits</text>
</g>
<!-- 22&#45;&gt;0 -->
<g id="edge10" class="edge">
<title>22-&gt;0</title>
<path fill="none" stroke="#c0c0c0" stroke-width="2" d="M352.1559,-217.3138C331.8685,-208.2409 308.2745,-195.6516 290,-180 249.5379,-145.3454 202.7039,-111.9038 238,-72 264.5034,-42.0368 538.7175,-25.0744 639.8257,-19.8003"/>
<polygon fill="#c0c0c0" stroke="#c0c0c0" stroke-width="2" points="640.0834,-23.2917 649.8911,-19.2842 639.7249,-16.3009 640.0834,-23.2917"/>
</g>
<!-- 24 -->
<g id="node25" class="node">
<title>24</title>
<path fill="none" stroke="#ced856" stroke-width="2" d="M313.2203,-108C313.2203,-108 258.7797,-108 258.7797,-108 252.7797,-108 246.7797,-102 246.7797,-96 246.7797,-96 246.7797,-84 246.7797,-84 246.7797,-78 252.7797,-72 258.7797,-72 258.7797,-72 313.2203,-72 313.2203,-72 319.2203,-72 325.2203,-78 325.2203,-84 325.2203,-84 325.2203,-96 325.2203,-96 325.2203,-102 319.2203,-108 313.2203,-108"/>
<text text-anchor="middle" x="286" y="-87" font-family="sans" font-size="10.00" fill="#000000">plot_spline_fits</text>
</g>
<!-- 22&#45;&gt;24 -->
<g id="edge67" class="edge">
<title>22-&gt;24</title>
<path fill="none" stroke="#c0c0c0" stroke-width="2" d="M353.8903,-215.8451C338.0558,-207.1075 321.1951,-195.1829 310,-180 296.7817,-162.0733 290.8397,-137.3843 288.1706,-118.3987"/>
<polygon fill="#c0c0c0" stroke="#c0c0c0" stroke-width="2" points="291.6204,-117.767 286.9729,-108.2459 284.6686,-118.5871 291.6204,-117.767"/>
</g>
<!-- 25 -->
<g id="node26" class="node">
<title>25</title>
<path fill="none" stroke="#56d8b9" stroke-width="2" d="M427.5961,-180C427.5961,-180 364.4039,-180 364.4039,-180 358.4039,-180 352.4039,-174 352.4039,-168 352.4039,-168 352.4039,-156 352.4039,-156 352.4039,-150 358.4039,-144 364.4039,-144 364.4039,-144 427.5961,-144 427.5961,-144 433.5961,-144 439.5961,-150 439.5961,-156 439.5961,-156 439.5961,-168 439.5961,-168 439.5961,-174 433.5961,-180 427.5961,-180"/>
<text text-anchor="middle" x="396" y="-159" font-family="sans" font-size="10.00" fill="#000000">assess_spline_fits</text>
</g>
<!-- 22&#45;&gt;25 -->
<g id="edge71" class="edge">
<title>22-&gt;25</title>
<path fill="none" stroke="#c0c0c0" stroke-width="2" d="M396,-215.8314C396,-208.131 396,-198.9743 396,-190.4166"/>
<polygon fill="#c0c0c0" stroke="#c0c0c0" stroke-width="2" points="399.5001,-190.4132 396,-180.4133 392.5001,-190.4133 399.5001,-190.4132"/>
</g>
<!-- 22&#45;&gt;28 -->
<g id="edge80" class="edge">
<title>22-&gt;28</title>
<path fill="none" stroke="#c0c0c0" stroke-width="2" d="M436.3298,-215.9081C495.0302,-189.5752 603.9096,-140.7321 667.4251,-112.2392"/>
<polygon fill="#c0c0c0" stroke="#c0c0c0" stroke-width="2" points="669.1437,-115.3043 676.8351,-108.0179 666.2786,-108.9175 669.1437,-115.3043"/>
</g>
<!-- 23 -->
<g id="node24" class="node">
<title>23</title>
<path fill="none" stroke="#afd856" stroke-width="2" d="M421.1021,-324C421.1021,-324 372.8979,-324 372.8979,-324 366.8979,-324 360.8979,-318 360.8979,-312 360.8979,-312 360.8979,-300 360.8979,-300 360.8979,-294 366.8979,-288 372.8979,-288 372.8979,-288 421.1021,-288 421.1021,-288 427.1021,-288 433.1021,-294 433.1021,-300 433.1021,-300 433.1021,-312 433.1021,-312 433.1021,-318 427.1021,-324 421.1021,-324"/>
<text text-anchor="middle" x="397" y="-303" font-family="sans" font-size="10.00" fill="#000000">run_spline_fit</text>
</g>
<!-- 23&#45;&gt;22 -->
<g id="edge64" class="edge">
<title>23-&gt;22</title>
<path fill="none" stroke="#c0c0c0" stroke-width="2" d="M396.7477,-287.8314C396.6407,-280.131 396.5135,-270.9743 396.3947,-262.4166"/>
<polygon fill="#c0c0c0" stroke="#c0c0c0" stroke-width="2" points="399.8944,-262.3637 396.2557,-252.4133 392.8951,-262.4609 399.8944,-262.3637"/>
</g>
<!-- 24&#45;&gt;0 -->
<g id="edge7" class="edge">
<title>24-&gt;0</title>
<path fill="none" stroke="#c0c0c0" stroke-width="2" d="M325.1423,-75.8831C329.7795,-74.456 334.4725,-73.1219 339,-72 446.6883,-45.3142 577.0757,-28.831 639.7774,-21.8624"/>
<polygon fill="#c0c0c0" stroke="#c0c0c0" stroke-width="2" points="640.4023,-25.315 649.9624,-20.7484 639.6411,-18.3565 640.4023,-25.315"/>
</g>
<!-- 25&#45;&gt;0 -->
<g id="edge15" class="edge">
<title>25-&gt;0</title>
<path fill="none" stroke="#c0c0c0" stroke-width="2" d="M382.5594,-143.7187C369.7819,-123.9235 354.8562,-92.4457 372,-72 405.7551,-31.7436 565.6588,-21.4809 639.4829,-18.8779"/>
<polygon fill="#c0c0c0" stroke="#c0c0c0" stroke-width="2" points="639.8435,-22.3681 649.7251,-18.5467 639.6172,-15.3718 639.8435,-22.3681"/>
</g>
<!-- 25&#45;&gt;24 -->
<g id="edge68" class="edge">
<title>25-&gt;24</title>
<path fill="none" stroke="#c0c0c0" stroke-width="2" d="M368.2424,-143.8314C354.303,-134.7074 337.2402,-123.539 322.2769,-113.7449"/>
<polygon fill="#c0c0c0" stroke="#c0c0c0" stroke-width="2" points="324.0326,-110.711 313.7488,-108.1628 320.199,-116.5679 324.0326,-110.711"/>
</g>
<!-- 26 -->
<g id="node27" class="node">
<title>26</title>
<path fill="none" stroke="#56d882" stroke-width="2" d="M483.3034,-108C483.3034,-108 392.6966,-108 392.6966,-108 386.6966,-108 380.6966,-102 380.6966,-96 380.6966,-96 380.6966,-84 380.6966,-84 380.6966,-78 386.6966,-72 392.6966,-72 392.6966,-72 483.3034,-72 483.3034,-72 489.3034,-72 495.3034,-78 495.3034,-84 495.3034,-84 495.3034,-96 495.3034,-96 495.3034,-102 489.3034,-108 483.3034,-108"/>
<text text-anchor="middle" x="438" y="-87" font-family="sans" font-size="10.00" fill="#000000">assess_phase_variability</text>
</g>
<!-- 25&#45;&gt;26 -->
<g id="edge74" class="edge">
<title>25-&gt;26</title>
<path fill="none" stroke="#c0c0c0" stroke-width="2" d="M406.5984,-143.8314C411.2877,-135.7925 416.9028,-126.1666 422.0798,-117.2918"/>
<polygon fill="#c0c0c0" stroke="#c0c0c0" stroke-width="2" points="425.2434,-118.8146 427.2589,-108.4133 419.1969,-115.2875 425.2434,-118.8146"/>
</g>
<!-- 25&#45;&gt;27 -->
<g id="edge76" class="edge">
<title>25-&gt;27</title>
<path fill="none" stroke="#c0c0c0" stroke-width="2" d="M437.6365,-143.8314C459.7042,-134.2018 486.9907,-122.295 510.2857,-112.1299"/>
<polygon fill="#c0c0c0" stroke="#c0c0c0" stroke-width="2" points="511.8974,-115.2454 519.6629,-108.038 509.0977,-108.8296 511.8974,-115.2454"/>
</g>
<!-- 25&#45;&gt;28 -->
<g id="edge83" class="edge">
<title>25-&gt;28</title>
<path fill="none" stroke="#c0c0c0" stroke-width="2" d="M439.5729,-147.9732C444.4212,-146.5629 449.303,-145.2079 454,-144 491.1196,-134.454 589.0799,-114.8885 654.3958,-102.1158"/>
<polygon fill="#c0c0c0" stroke="#c0c0c0" stroke-width="2" points="655.4399,-105.4781 664.584,-100.1267 654.0986,-98.6078 655.4399,-105.4781"/>
</g>
<!-- 26&#45;&gt;0 -->
<g id="edge12" class="edge">
<title>26-&gt;0</title>
<path fill="none" stroke="#c0c0c0" stroke-width="2" d="M495.2465,-72.7542C540.1228,-59.235 601.25,-40.8201 639.9219,-29.17"/>
<polygon fill="#c0c0c0" stroke="#c0c0c0" stroke-width="2" points="641.1584,-32.4529 649.7237,-26.2171 639.1392,-25.7505 641.1584,-32.4529"/>
</g>
<!-- 27&#45;&gt;0 -->
<g id="edge14" class="edge">
<title>27-&gt;0</title>
<path fill="none" stroke="#c0c0c0" stroke-width="2" d="M590.2717,-71.8314C605.6751,-62.2706 624.6951,-50.4651 640.9947,-40.3481"/>
<polygon fill="#c0c0c0" stroke="#c0c0c0" stroke-width="2" points="643.0792,-43.1737 649.7299,-34.9263 639.3877,-37.2262 643.0792,-43.1737"/>
</g>
<!-- 28&#45;&gt;0 -->
<g id="edge3" class="edge">
<title>28-&gt;0</title>
<path fill="none" stroke="#c0c0c0" stroke-width="2" d="M706.9063,-71.8314C702.4403,-63.7925 697.0925,-54.1666 692.1621,-45.2918"/>
<polygon fill="#c0c0c0" stroke="#c0c0c0" stroke-width="2" points="695.1456,-43.4551 687.2296,-36.4133 689.0265,-46.8546 695.1456,-43.4551"/>
</g>
<!-- 29&#45;&gt;3 -->
<g id="edge26" class="edge">
<title>29-&gt;3</title>
<path fill="none" stroke="#c0c0c0" stroke-width="2" d="M1135.2782,-588.7635C1048.3453,-581.2764 891.8729,-565.5243 760,-540 541.998,-497.8052 286.8518,-420.2701 191.5053,-390.2873"/>
<polygon fill="#c0c0c0" stroke="#c0c0c0" stroke-width="2" points="192.3186,-386.8739 181.7289,-387.2033 190.2126,-393.5496 192.3186,-386.8739"/>
</g>
<!-- 29&#45;&gt;6 -->
<g id="edge30" class="edge">
<title>29-&gt;6</title>
<path fill="none" stroke="#c0c0c0" stroke-width="2" d="M1135.3641,-587.4004C1062.9736,-579.4326 944.2438,-564.0292 844,-540 547.9642,-469.038 478.1218,-433.3051 194,-324 192.5943,-323.4592 191.1665,-322.8971 189.728,-322.3202"/>
<polygon fill="#c0c0c0" stroke="#c0c0c0" stroke-width="2" points="190.778,-318.9664 180.2003,-318.3625 188.0927,-325.4309 190.778,-318.9664"/>
</g>
<!-- 29&#45;&gt;7 -->
<g id="edge31" class="edge">
<title>29-&gt;7</title>
<path fill="none" stroke="#c0c0c0" stroke-width="2" d="M1184.336,-575.8314C1176.0268,-567.2848 1165.9736,-556.9443 1156.9082,-547.6198"/>
<polygon fill="#c0c0c0" stroke="#c0c0c0" stroke-width="2" points="1159.3821,-545.1435 1149.9018,-540.4133 1154.3631,-550.023 1159.3821,-545.1435"/>
</g>
<!-- 29&#45;&gt;9 -->
<g id="edge34" class="edge">
<title>29-&gt;9</title>
<path fill="none" stroke="#c0c0c0" stroke-width="2" d="M1268.6996,-587.1786C1379.6345,-571.7473 1590,-523.3257 1590,-378 1590,-378 1590,-378 1590,-234 1590,-186.0912 1552.9087,-141.8312 1525.079,-115.3654"/>
<polygon fill="#c0c0c0" stroke="#c0c0c0" stroke-width="2" points="1527.2364,-112.5938 1517.5137,-108.3843 1522.4892,-117.7382 1527.2364,-112.5938"/>
</g>
<!-- 29&#45;&gt;10 -->
<g id="edge37" class="edge">
<title>29-&gt;10</title>
<path fill="none" stroke="#c0c0c0" stroke-width="2" d="M1220.9239,-575.5784C1231.0756,-565.3966 1243.6008,-552.3415 1254,-540 1270.1849,-520.7922 1365.3892,-389.7048 1406.7889,-332.5502"/>
<polygon fill="#c0c0c0" stroke="#c0c0c0" stroke-width="2" points="1409.6909,-334.5101 1412.7212,-324.3578 1404.0213,-330.4045 1409.6909,-334.5101"/>
</g>
<!-- 29&#45;&gt;11 -->
<g id="edge39" class="edge">
<title>29-&gt;11</title>
<path fill="none" stroke="#c0c0c0" stroke-width="2" d="M1208.4211,-575.9875C1232.4409,-508.6074 1317.1034,-271.1125 1346.1401,-189.6588"/>
<polygon fill="#c0c0c0" stroke="#c0c0c0" stroke-width="2" points="1349.4903,-190.6841 1349.5515,-180.0894 1342.8968,-188.3335 1349.4903,-190.6841"/>
</g>
<!-- 29&#45;&gt;14 -->
<g id="edge48" class="edge">
<title>29-&gt;14</title>
<path fill="none" stroke="#c0c0c0" stroke-width="2" d="M1202,-575.8146C1202,-548.4983 1202,-495.25 1202,-450 1202,-450 1202,-450 1202,-378 1202,-337.6589 1196.1042,-291.3012 1191.7053,-262.327"/>
<polygon fill="#c0c0c0" stroke="#c0c0c0" stroke-width="2" points="1195.1124,-261.4608 1190.108,-252.1223 1188.1966,-262.5433 1195.1124,-261.4608"/>
</g>
<!-- 29&#45;&gt;16 -->
<g id="edge52" class="edge">
<title>29-&gt;16</title>
<path fill="none" stroke="#c0c0c0" stroke-width="2" d="M1268.9158,-577.1454C1297.9717,-568.3288 1331.7457,-555.9937 1360,-540 1384.2909,-526.2499 1552,-405.9126 1552,-378 1552,-378 1552,-378 1552,-234 1552,-167.3925 1475.7334,-126.2849 1423.0441,-105.8332"/>
<polygon fill="#c0c0c0" stroke="#c0c0c0" stroke-width="2" points="1424.0962,-102.4897 1413.504,-102.2533 1421.6368,-109.0435 1424.0962,-102.4897"/>
</g>
<!-- 34 -->
<g id="node35" class="node">
<title>34</title>
<path fill="none" stroke="#5682d8" stroke-width="2" d="M1040.6051,-324C1040.6051,-324 997.3949,-324 997.3949,-324 991.3949,-324 985.3949,-318 985.3949,-312 985.3949,-312 985.3949,-300 985.3949,-300 985.3949,-294 991.3949,-288 997.3949,-288 997.3949,-288 1040.6051,-288 1040.6051,-288 1046.6051,-288 1052.6051,-294 1052.6051,-300 1052.6051,-300 1052.6051,-312 1052.6051,-312 1052.6051,-318 1046.6051,-324 1040.6051,-324"/>
<text text-anchor="middle" x="1019" y="-303" font-family="sans" font-size="10.00" fill="#000000">run_bootejtk</text>
</g>
<!-- 29&#45;&gt;34 -->
<g id="edge98" class="edge">
<title>29-&gt;34</title>
<path fill="none" stroke="#c0c0c0" stroke-width="2" d="M1135.2992,-578.928C1080.699,-562.3608 1008.4731,-529.4975 983,-468 964.2346,-422.6964 986.3337,-366.026 1003.2551,-333.1279"/>
<polygon fill="#c0c0c0" stroke="#c0c0c0" stroke-width="2" points="1006.4454,-334.5837 1008.0705,-324.1142 1000.2713,-331.2852 1006.4454,-334.5837"/>
</g>
<!-- 29&#45;&gt;37 -->
<g id="edge104" class="edge">
<title>29-&gt;37</title>
<path fill="none" stroke="#c0c0c0" stroke-width="2" d="M1237.8709,-575.8519C1255.0797,-566.3253 1275.4912,-553.7761 1292,-540 1314.8045,-520.9704 1336.7588,-495.1523 1351.7102,-476.0484"/>
<polygon fill="#c0c0c0" stroke="#c0c0c0" stroke-width="2" points="1354.5396,-478.1106 1357.8678,-468.0521 1348.9935,-473.8397 1354.5396,-478.1106"/>
</g>
<!-- 29&#45;&gt;38 -->
<g id="edge107" class="edge">
<title>29-&gt;38</title>
<path fill="none" stroke="#c0c0c0" stroke-width="2" d="M1251.0458,-575.896C1273.7253,-566.5871 1300.5481,-554.2076 1323,-540 1343.7752,-526.8534 1394.4629,-489.1487 1407,-468 1418.1479,-449.1947 1422.8063,-424.7659 1424.7279,-406.1051"/>
<polygon fill="#c0c0c0" stroke="#c0c0c0" stroke-width="2" points="1428.216,-406.3929 1425.5547,-396.1378 1421.2399,-405.8142 1428.216,-406.3929"/>
</g>
<!-- 29&#45;&gt;39 -->
<g id="edge113" class="edge">
<title>29-&gt;39</title>
<path fill="none" stroke="#c0c0c0" stroke-width="2" d="M1135.1192,-585.3507C1071.0394,-576.0652 979.803,-559.9258 950,-540 927.1241,-524.7055 910.2687,-497.8546 899.9544,-477.4503"/>
<polygon fill="#c0c0c0" stroke="#c0c0c0" stroke-width="2" points="903.0442,-475.7998 895.5482,-468.3125 896.739,-478.8402 903.0442,-475.7998"/>
</g>
<!-- 29&#45;&gt;40 -->
<g id="edge117" class="edge">
<title>29-&gt;40</title>
<path fill="none" stroke="#c0c0c0" stroke-width="2" d="M1137.8491,-575.9977C1117.5831,-567.7332 1096.4656,-556.0849 1081,-540 1064.5877,-522.9305 1055.3413,-497.435 1050.3417,-477.9333"/>
<polygon fill="#c0c0c0" stroke="#c0c0c0" stroke-width="2" points="1053.7238,-477.0246 1048.0407,-468.083 1046.9073,-478.617 1053.7238,-477.0246"/>
</g>
<!-- 29&#45;&gt;42 -->
<g id="edge121" class="edge">
<title>29-&gt;42</title>
<path fill="none" stroke="#c0c0c0" stroke-width="2" d="M1135.3259,-589.1411C1075.3453,-583.0184 985.734,-569.4686 913,-540 832.4562,-507.3672 825.684,-474.7099 750,-432 726.5744,-418.7805 699.3854,-405.8156 677.4366,-395.9041"/>
<polygon fill="#c0c0c0" stroke="#c0c0c0" stroke-width="2" points="678.6236,-392.6009 668.0659,-391.7136 675.7659,-398.9911 678.6236,-392.6009"/>
</g>
<!-- 30&#45;&gt;29 -->
<g id="edge87" class="edge">
<title>30-&gt;29</title>
<path fill="none" stroke="#c0c0c0" stroke-width="2" d="M1202,-647.8314C1202,-640.131 1202,-630.9743 1202,-622.4166"/>
<polygon fill="#c0c0c0" stroke="#c0c0c0" stroke-width="2" points="1205.5001,-622.4132 1202,-612.4133 1198.5001,-622.4133 1205.5001,-622.4132"/>
</g>
<!-- 31&#45;&gt;30 -->
<g id="edge90" class="edge">
<title>31-&gt;30</title>
<path fill="none" stroke="#c0c0c0" stroke-width="2" d="M1195.8866,-791.7623C1197.0805,-767.201 1199.2171,-723.2474 1200.6217,-694.3541"/>
<polygon fill="#c0c0c0" stroke="#c0c0c0" stroke-width="2" points="1204.1309,-694.2478 1201.1206,-684.0896 1197.1391,-693.9079 1204.1309,-694.2478"/>
</g>
<!-- 31&#45;&gt;36 -->
<g id="edge101" class="edge">
<title>31-&gt;36</title>
<path fill="none" stroke="#c0c0c0" stroke-width="2" d="M1214.4304,-791.8314C1223.732,-783.1337 1235.0204,-772.5783 1245.1286,-763.1265"/>
<polygon fill="#c0c0c0" stroke="#c0c0c0" stroke-width="2" points="1247.6621,-765.5493 1252.5759,-756.1628 1242.8811,-760.4363 1247.6621,-765.5493"/>
</g>
<!-- 32&#45;&gt;31 -->
<g id="edge93" class="edge">
<title>32-&gt;31</title>
<path fill="none" stroke="#c0c0c0" stroke-width="2" d="M1188.2711,-863.8314C1189.2336,-856.131 1190.3782,-846.9743 1191.4479,-838.4166"/>
<polygon fill="#c0c0c0" stroke="#c0c0c0" stroke-width="2" points="1194.9309,-838.7702 1192.6983,-828.4133 1187.9849,-837.9019 1194.9309,-838.7702"/>
</g>
<!-- 33 -->
<g id="node34" class="node">
<title>33</title>
<path fill="none" stroke="#56d85b" stroke-width="2" d="M1166.468,-756C1166.468,-756 1079.532,-756 1079.532,-756 1073.532,-756 1067.532,-750 1067.532,-744 1067.532,-744 1067.532,-732 1067.532,-732 1067.532,-726 1073.532,-720 1079.532,-720 1079.532,-720 1166.468,-720 1166.468,-720 1172.468,-720 1178.468,-726 1178.468,-732 1178.468,-732 1178.468,-744 1178.468,-744 1178.468,-750 1172.468,-756 1166.468,-756"/>
<text text-anchor="middle" x="1123" y="-735" font-family="sans" font-size="10.00" fill="#000000">generate_salmon_index</text>
</g>
<!-- 33&#45;&gt;30 -->
<g id="edge91" class="edge">
<title>33-&gt;30</title>
<path fill="none" stroke="#c0c0c0" stroke-width="2" d="M1142.935,-719.8314C1152.4783,-711.1337 1164.0599,-700.5783 1174.4306,-691.1265"/>
<polygon fill="#c0c0c0" stroke="#c0c0c0" stroke-width="2" points="1177.038,-693.4857 1182.0713,-684.1628 1172.3228,-688.3121 1177.038,-693.4857"/>
</g>
<!-- 34&#45;&gt;18 -->
<g id="edge57" class="edge">
<title>34-&gt;18</title>
<path fill="none" stroke="#c0c0c0" stroke-width="2" d="M991.3901,-287.7623C952.1596,-261.8485 880.2489,-214.3479 836.915,-185.7237"/>
<polygon fill="#c0c0c0" stroke="#c0c0c0" stroke-width="2" points="838.6588,-182.6809 828.3857,-180.0896 834.8006,-188.5217 838.6588,-182.6809"/>
</g>
<!-- 35 -->
<g id="node36" class="node">
<title>35</title>
<path fill="none" stroke="#80d856" stroke-width="2" d="M931,-396C931,-396 901,-396 901,-396 895,-396 889,-390 889,-384 889,-384 889,-372 889,-372 889,-366 895,-360 901,-360 901,-360 931,-360 931,-360 937,-360 943,-366 943,-372 943,-372 943,-384 943,-384 943,-390 937,-396 931,-396"/>
<text text-anchor="middle" x="916" y="-375" font-family="sans" font-size="10.00" fill="#000000">run_ejtk</text>
</g>
<!-- 35&#45;&gt;34 -->
<g id="edge97" class="edge">
<title>35-&gt;34</title>
<path fill="none" stroke="#c0c0c0" stroke-width="2" d="M941.9912,-359.8314C954.9216,-350.7927 970.7222,-339.7476 984.6383,-330.0198"/>
<polygon fill="#c0c0c0" stroke="#c0c0c0" stroke-width="2" points="986.8263,-332.7608 993.0171,-324.1628 982.8157,-327.0235 986.8263,-332.7608"/>
</g>
<!-- 36&#45;&gt;30 -->
<g id="edge89" class="edge">
<title>36-&gt;30</title>
<path fill="none" stroke="#c0c0c0" stroke-width="2" d="M1254.336,-719.8314C1246.0268,-711.2848 1235.9736,-700.9443 1226.9082,-691.6198"/>
<polygon fill="#c0c0c0" stroke="#c0c0c0" stroke-width="2" points="1229.3821,-689.1435 1219.9018,-684.4133 1224.3631,-694.023 1229.3821,-689.1435"/>
</g>
<!-- 37&#45;&gt;38 -->
<g id="edge106" class="edge">
<title>37-&gt;38</title>
<path fill="none" stroke="#c0c0c0" stroke-width="2" d="M1384.8788,-431.8314C1391.2136,-423.5386 1398.8384,-413.557 1405.7926,-404.4533"/>
<polygon fill="#c0c0c0" stroke="#c0c0c0" stroke-width="2" points="1408.6452,-406.4847 1411.9343,-396.4133 1403.0825,-402.2353 1408.6452,-406.4847"/>
</g>
<!-- 38&#45;&gt;10 -->
<g id="edge36" class="edge">
<title>38-&gt;10</title>
<path fill="none" stroke="#c0c0c0" stroke-width="2" d="M1426,-359.8314C1426,-352.131 1426,-342.9743 1426,-334.4166"/>
<polygon fill="#c0c0c0" stroke="#c0c0c0" stroke-width="2" points="1429.5001,-334.4132 1426,-324.4133 1422.5001,-334.4133 1429.5001,-334.4132"/>
</g>
<!-- 39&#45;&gt;34 -->
<g id="edge99" class="edge">
<title>39-&gt;34</title>
<path fill="none" stroke="#c0c0c0" stroke-width="2" d="M880.0138,-431.7097C872.8407,-412.1957 865.4713,-381.2308 880,-360 880.7339,-358.9276 935.2674,-337.9426 975.8002,-322.4548"/>
<polygon fill="#c0c0c0" stroke="#c0c0c0" stroke-width="2" points="977.1501,-325.6859 985.2438,-318.849 974.6531,-319.1464 977.1501,-325.6859"/>
</g>
<!-- 39&#45;&gt;35 -->
<g id="edge100" class="edge">
<title>39-&gt;35</title>
<path fill="none" stroke="#c0c0c0" stroke-width="2" d="M895.0656,-431.8314C898.126,-423.9617 901.7779,-414.5712 905.1682,-405.8533"/>
<polygon fill="#c0c0c0" stroke="#c0c0c0" stroke-width="2" points="908.4768,-407.0019 908.8393,-396.4133 901.9527,-404.4647 908.4768,-407.0019"/>
</g>
<!-- 40&#45;&gt;21 -->
<g id="edge63" class="edge">
<title>40-&gt;21</title>
<path fill="none" stroke="#c0c0c0" stroke-width="2" d="M1052.7241,-431.7739C1064.6502,-400.7236 1083.9931,-336.2477 1062,-288 1041.2386,-242.4543 994.9811,-207.0044 960.2594,-185.4675"/>
<polygon fill="#c0c0c0" stroke="#c0c0c0" stroke-width="2" points="961.6235,-182.2026 951.2538,-180.0298 958.0052,-188.195 961.6235,-182.2026"/>
</g>
<!-- 41&#45;&gt;0 -->
<g id="edge19" class="edge">
<title>41-&gt;0</title>
<path fill="none" stroke="#c0c0c0" stroke-width="2" d="M827.7349,-359.7794C845.1031,-349.7607 866.5984,-336.795 885,-324 895.5143,-316.6891 1059.4525,-191.5423 1065,-180 1071.931,-165.5791 1070.3216,-159.0891 1065,-144 1051.333,-105.2481 1042.507,-92.6821 1007,-72 957.7119,-43.2906 789.6489,-26.8384 714.1974,-20.7421"/>
<polygon fill="#c0c0c0" stroke="#c0c0c0" stroke-width="2" points="714.4324,-17.2498 704.1875,-19.9504 713.8804,-24.2281 714.4324,-17.2498"/>
</g>
<!-- 41&#45;&gt;13 -->
<g id="edge43" class="edge">
<title>41-&gt;13</title>
<path fill="none" stroke="#c0c0c0" stroke-width="2" d="M833.1278,-366.7854C861.7247,-357.5109 901.2401,-342.8228 933,-324 954.4418,-311.2923 955.0466,-301.4977 976,-288 1007.0835,-267.9768 1019.9744,-272.1127 1051,-252 1092.5436,-225.0689 1102.777,-216.7068 1136,-180 1153.7257,-160.4156 1170.5082,-135.5151 1182.1311,-116.8726"/>
<polygon fill="#c0c0c0" stroke="#c0c0c0" stroke-width="2" points="1185.1599,-118.6287 1187.404,-108.2742 1179.1926,-114.9693 1185.1599,-118.6287"/>
</g>
<!-- 41&#45;&gt;15 -->
<g id="edge51" class="edge">
<title>41-&gt;15</title>
<path fill="none" stroke="#c0c0c0" stroke-width="2" d="M814.2141,-359.9555C855.225,-321.4409 951.4041,-231.1161 998.3195,-187.0564"/>
<polygon fill="#c0c0c0" stroke="#c0c0c0" stroke-width="2" points="1000.7854,-189.5421 1005.6789,-180.1451 995.9934,-184.4395 1000.7854,-189.5421"/>
</g>
<!-- 41&#45;&gt;17 -->
<g id="edge56" class="edge">
<title>41-&gt;17</title>
<path fill="none" stroke="#c0c0c0" stroke-width="2" d="M756.8468,-362.9064C731.0935,-352.7183 696.6985,-339.1115 667.9991,-327.7579"/>
<polygon fill="#c0c0c0" stroke="#c0c0c0" stroke-width="2" points="669.0917,-324.4262 658.5053,-324.0021 666.5166,-330.9354 669.0917,-324.4262"/>
</g>
<!-- 41&#45;&gt;23 -->
<g id="edge66" class="edge">
<title>41-&gt;23</title>
<path fill="none" stroke="#c0c0c0" stroke-width="2" d="M756.8381,-371.0963C683.4742,-357.8245 523.0008,-328.7941 443.5154,-314.4148"/>
<polygon fill="#c0c0c0" stroke="#c0c0c0" stroke-width="2" points="443.7775,-310.9055 433.3141,-312.5694 442.5313,-317.7937 443.7775,-310.9055"/>
</g>
<!-- 41&#45;&gt;24 -->
<g id="edge70" class="edge">
<title>41-&gt;24</title>
<path fill="none" stroke="#c0c0c0" stroke-width="2" d="M756.5646,-372.0128C698.1327,-362.4622 590.1363,-342.9213 556,-324 496.9026,-291.243 506.2937,-251.8185 449,-216 406.812,-189.6252 382.0965,-210.7721 343,-180 322.1423,-163.5833 306.7566,-137.288 297.2627,-117.3495"/>
<polygon fill="#c0c0c0" stroke="#c0c0c0" stroke-width="2" points="300.4022,-115.7981 293.0772,-108.1434 294.0299,-118.6953 300.4022,-115.7981"/>
</g>
<!-- 41&#45;&gt;25 -->
<g id="edge73" class="edge">
<title>41-&gt;25</title>
<path fill="none" stroke="#c0c0c0" stroke-width="2" d="M772.3351,-359.807C747.9082,-340.6544 707.4803,-310.2519 670,-288 606.4132,-250.2487 587.2442,-246.7679 520,-216 496.4598,-205.2291 470.197,-193.72 447.9226,-184.1063"/>
<polygon fill="#c0c0c0" stroke="#c0c0c0" stroke-width="2" points="449.2092,-180.8496 438.6403,-180.1098 446.4411,-187.279 449.2092,-180.8496"/>
</g>
<!-- 41&#45;&gt;27 -->
<g id="edge78" class="edge">
<title>41-&gt;27</title>
<path fill="none" stroke="#c0c0c0" stroke-width="2" d="M780.3623,-359.9843C740.3089,-310.6878 628.7904,-173.4344 582.0432,-115.8993"/>
<polygon fill="#c0c0c0" stroke="#c0c0c0" stroke-width="2" points="584.6546,-113.563 575.6322,-108.0089 579.2218,-117.9771 584.6546,-113.563"/>
</g>
<!-- 41&#45;&gt;28 -->
<g id="edge82" class="edge">
<title>41-&gt;28</title>
<path fill="none" stroke="#c0c0c0" stroke-width="2" d="M793.3426,-359.6801C791.3035,-341.2125 787.0714,-312.075 779,-288 761.8776,-236.928 738.5921,-231.8517 724,-180 718.3481,-159.9165 716.6815,-136.3828 716.3836,-118.4182"/>
<polygon fill="#c0c0c0" stroke="#c0c0c0" stroke-width="2" points="719.8833,-118.2814 716.3491,-108.2934 712.8833,-118.3053 719.8833,-118.2814"/>
</g>
<!-- 41&#45;&gt;34 -->
<g id="edge96" class="edge">
<title>41-&gt;34</title>
<path fill="none" stroke="#c0c0c0" stroke-width="2" d="M832.9813,-364.6038C837.6904,-363.0164 842.448,-361.4476 847,-360 901.6879,-342.6085 916.5385,-342.088 971,-324 972.5969,-323.4696 974.2197,-322.9194 975.8559,-322.3552"/>
<polygon fill="#c0c0c0" stroke="#c0c0c0" stroke-width="2" points="977.031,-325.6521 985.2861,-319.0111 974.6914,-319.0547 977.031,-325.6521"/>
</g>
<!-- 42&#45;&gt;0 -->
<g id="edge9" class="edge">
<title>42-&gt;0</title>
<path fill="none" stroke="#c0c0c0" stroke-width="2" d="M604.296,-377.0224C529.0513,-374.0804 342.5135,-362.944 296,-324 206.4995,-249.0645 144.4763,-159.2683 222,-72 249.6449,-40.8802 536.2545,-24.5495 639.877,-19.6279"/>
<polygon fill="#c0c0c0" stroke="#c0c0c0" stroke-width="2" points="640.0618,-23.1232 649.8878,-19.1611 639.7356,-16.1308 640.0618,-23.1232"/>
</g>
<!-- 42&#45;&gt;6 -->
<g id="edge29" class="edge">
<title>42-&gt;6</title>
<path fill="none" stroke="#c0c0c0" stroke-width="2" d="M604.1988,-364.2275C599.5042,-362.5853 594.674,-361.1034 590,-360 418.0018,-319.3967 365.1363,-368.0949 194,-324 192.7297,-323.6727 191.4486,-323.3103 190.1639,-322.9189"/>
<polygon fill="#c0c0c0" stroke="#c0c0c0" stroke-width="2" points="190.951,-319.4849 180.3562,-319.4506 188.6171,-326.0844 190.951,-319.4849"/>
</g>
<!-- 42&#45;&gt;13 -->
<g id="edge46" class="edge">
<title>42-&gt;13</title>
<path fill="none" stroke="#c0c0c0" stroke-width="2" d="M667.6739,-366.9995C696.6986,-356.6737 740.6965,-340.4006 778,-324 908.6422,-266.5627 941.8662,-252.1422 1065,-180 1100.1643,-159.3978 1138.5356,-132.9787 1164.9858,-114.1033"/>
<polygon fill="#c0c0c0" stroke="#c0c0c0" stroke-width="2" points="1167.0502,-116.9299 1173.1355,-108.257 1162.9699,-111.2421 1167.0502,-116.9299"/>
</g>
<!-- 42&#45;&gt;15 -->
<g id="edge50" class="edge">
<title>42-&gt;15</title>
<path fill="none" stroke="#c0c0c0" stroke-width="2" d="M667.9824,-359.8551C721.1789,-329.7236 831.2673,-267.5747 925,-216 944.6683,-205.1779 966.6066,-193.3088 984.9122,-183.4611"/>
<polygon fill="#c0c0c0" stroke="#c0c0c0" stroke-width="2" points="986.6989,-186.4744 993.8508,-178.6577 983.3853,-180.3083 986.6989,-186.4744"/>
</g>
<!-- 42&#45;&gt;17 -->
<g id="edge55" class="edge">
<title>42-&gt;17</title>
<path fill="none" stroke="#c0c0c0" stroke-width="2" d="M630.1961,-359.8314C627.7092,-352.0463 624.7469,-342.7729 621.9875,-334.1347"/>
<polygon fill="#c0c0c0" stroke="#c0c0c0" stroke-width="2" points="625.2591,-332.874 618.882,-324.4133 618.591,-335.0041 625.2591,-332.874"/>
</g>
<!-- 42&#45;&gt;23 -->
<g id="edge65" class="edge">
<title>42-&gt;23</title>
<path fill="none" stroke="#c0c0c0" stroke-width="2" d="M604.0154,-364.8881C599.3477,-363.149 594.5738,-361.4641 590,-360 527.5815,-340.019 509.6867,-343.123 447,-324 445.5936,-323.571 444.1685,-323.1256 442.7326,-322.6676"/>
<polygon fill="#c0c0c0" stroke="#c0c0c0" stroke-width="2" points="443.773,-319.3252 433.1797,-319.5004 441.5701,-325.9696 443.773,-319.3252"/>
</g>
<!-- 42&#45;&gt;24 -->
<g id="edge69" class="edge">
<title>42-&gt;24</title>
<path fill="none" stroke="#c0c0c0" stroke-width="2" d="M604.1507,-364.4211C599.4632,-362.7506 594.6477,-361.2091 590,-360 532.9108,-345.148 371.0492,-363.2355 327,-324 268.4669,-271.8634 274.2463,-168.168 281.108,-118.204"/>
<polygon fill="#c0c0c0" stroke="#c0c0c0" stroke-width="2" points="284.5992,-118.5217 282.6109,-108.1151 277.6756,-117.4903 284.5992,-118.5217"/>
</g>
<!-- 42&#45;&gt;25 -->
<g id="edge72" class="edge">
<title>42-&gt;25</title>
<path fill="none" stroke="#c0c0c0" stroke-width="2" d="M604.3858,-364.5711C599.6216,-362.8575 594.7219,-361.264 590,-360 538.3288,-346.1683 389.3331,-362.3077 352,-324 318.3828,-289.5053 324.7757,-260.5856 343,-216 347.4592,-205.0907 355.3025,-195.1954 363.6103,-186.9434"/>
<polygon fill="#c0c0c0" stroke="#c0c0c0" stroke-width="2" points="366.0045,-189.4965 370.9572,-180.1305 361.2448,-184.3637 366.0045,-189.4965"/>
</g>
<!-- 42&#45;&gt;27 -->
<g id="edge77" class="edge">
<title>42-&gt;27</title>
<path fill="none" stroke="#c0c0c0" stroke-width="2" d="M604.3938,-365.4278C599.5845,-363.5741 594.6696,-361.7132 590,-360 543.6855,-343.0076 513.6744,-364.1442 485,-324 438.0217,-258.2304 502.0137,-161.8436 538.5947,-116.0339"/>
<polygon fill="#c0c0c0" stroke="#c0c0c0" stroke-width="2" points="541.4669,-118.0498 545.0732,-108.0876 536.0415,-113.6265 541.4669,-118.0498"/>
</g>
<!-- 42&#45;&gt;28 -->
<g id="edge85" class="edge">
<title>42-&gt;28</title>
<path fill="none" stroke="#c0c0c0" stroke-width="2" d="M604.3674,-365.6123C586.6938,-356.8604 566.2237,-343.2358 556,-324 548.4908,-309.8716 550.6439,-303.0769 556,-288 581.9622,-214.9195 647.6967,-149.2045 686.6731,-114.9518"/>
<polygon fill="#c0c0c0" stroke="#c0c0c0" stroke-width="2" points="689.2872,-117.3183 694.5602,-108.1288 684.7075,-112.0243 689.2872,-117.3183"/>
</g>
</g>
</svg>